<svg width="1440" height="2060" viewBox="0 0 1440 2060" fill="none" xmlns="http://www.w3.org/2000/svg">
<path fill-rule="evenodd" clip-rule="evenodd" d="M-435.989 371.479C-412.364 311.87 -345.508 283.828 -303.229 235.621C-252.011 177.223 -237.04 55.37 -159.346 56.0517C-70.798 56.8287 -44.1619 188.808 29.1137 238.537C72.1492 267.743 126.35 269.612 176.364 283.882C252.71 305.664 385.797 267.92 403.39 345.321C423.655 434.477 281.178 479.503 239.298 560.762C219.073 600.004 221.179 646.845 225.332 690.801C234.201 784.66 313.331 877.981 277.512 965.178C247.909 1037.24 147.211 1081.76 70.5973 1067.48C-15.7184 1051.39 -36.0196 915.054 -120.459 890.981C-198.205 868.817 -277.977 975.812 -353.364 946.614C-421.072 920.39 -445.19 830.767 -459.617 759.623C-473.143 692.924 -435.907 627.89 -431.772 559.965C-427.905 496.442 -459.435 430.639 -435.989 371.479Z" fill="#394263" fill-opacity="0.1"/>
<path fill-rule="evenodd" clip-rule="evenodd" d="M1187.69 1629.44C1168.59 1573.48 1198.72 1513.8 1199.54 1454.68C1200.52 1383.06 1138.11 1288.62 1193.03 1242.6C1255.62 1190.16 1353.28 1266.82 1434.44 1257.86C1482.11 1252.6 1521.26 1221.48 1564.88 1201.56C1631.48 1171.16 1702.27 1065.04 1760.92 1108.82C1828.49 1159.24 1755.47 1276.09 1774.72 1358.16C1784.01 1397.79 1813.52 1429.39 1842.73 1457.75C1905.12 1518.29 2016.47 1536.41 2043.52 1619.02C2065.87 1687.29 2021.87 1778.78 1959.57 1814.61C1889.38 1854.96 1793.56 1771.46 1719.92 1805.1C1652.11 1836.07 1660.17 1958.87 1589.81 1983.5C1526.61 2005.62 1456.06 1957.17 1403.37 1915.89C1353.97 1877.19 1341.18 1809.28 1303.43 1759.15C1268.14 1712.27 1206.64 1684.97 1187.69 1629.44Z" fill="#394263" fill-opacity="0.1"/>
</svg>
