<svg width="1440" height="1485" viewBox="0 0 1440 1485" fill="none" xmlns="http://www.w3.org/2000/svg">
<path fill-rule="evenodd" clip-rule="evenodd" d="M1211.24 1078.83C1193.22 1026.03 1221.65 969.714 1222.42 913.926C1223.35 846.346 1164.46 757.222 1216.28 713.804C1275.34 664.32 1367.49 736.654 1444.08 728.2C1489.07 723.236 1526 693.869 1567.17 675.075C1630.01 646.387 1696.81 546.252 1752.16 587.56C1815.92 635.141 1747.02 745.399 1765.17 822.842C1773.94 860.241 1801.79 890.062 1829.36 916.817C1888.22 973.947 1993.3 991.047 2018.83 1069C2039.92 1133.42 1998.39 1219.76 1939.61 1253.56C1873.38 1291.64 1782.96 1212.85 1713.46 1244.59C1649.48 1273.82 1657.08 1389.7 1590.69 1412.93C1531.06 1433.8 1464.48 1388.09 1414.76 1349.13C1368.14 1312.62 1356.07 1248.54 1320.46 1201.23C1287.15 1157 1229.12 1131.24 1211.24 1078.83Z" fill="#394263" fill-opacity="0.1"/>
<path fill-rule="evenodd" clip-rule="evenodd" d="M-540.827 350.538C-518.535 294.29 -455.447 267.829 -415.551 222.339C-367.221 167.233 -353.093 52.2489 -279.779 52.8922C-196.222 53.6254 -171.088 178.165 -101.943 225.091C-61.3332 252.65 -10.1878 254.414 37.007 267.879C109.05 288.434 234.634 252.817 251.235 325.855C270.358 409.985 135.913 452.473 96.3933 529.151C77.3084 566.181 79.2957 610.382 83.215 651.86C91.5839 740.429 166.253 828.489 132.453 910.771C104.519 978.772 9.49747 1020.78 -62.7977 1007.31C-144.248 992.121 -163.405 863.472 -243.084 840.756C-316.448 819.841 -391.722 920.806 -462.86 893.253C-526.752 868.508 -549.51 783.936 -563.124 716.803C-575.887 653.863 -540.75 592.496 -536.848 528.4C-533.199 468.457 -562.952 406.364 -540.827 350.538Z" fill="#394263" fill-opacity="0.1"/>
</svg>
