<svg width="21" height="21" viewBox="0 0 21 21" fill="none" xmlns="http://www.w3.org/2000/svg">
<path d="M15.75 6.12512H15.4437C15.6434 5.71629 15.7481 5.26761 15.75 4.81262C15.7526 4.20303 15.5728 3.6066 15.2336 3.1001C14.8944 2.5936 14.4113 2.20021 13.8467 1.97057C13.282 1.74093 12.6615 1.68555 12.065 1.81156C11.4686 1.93757 10.9235 2.2392 10.5 2.67762C10.0765 2.2392 9.53139 1.93757 8.93496 1.81156C8.33853 1.68555 7.71804 1.74093 7.15335 1.97057C6.58866 2.20021 6.10562 2.5936 5.76642 3.1001C5.42721 3.6066 5.24735 4.20303 5.25 4.81262C5.25187 5.26761 5.35656 5.71629 5.55625 6.12512H5.25C4.55381 6.12512 3.88613 6.40169 3.39384 6.89397C2.90156 7.38625 2.625 8.05393 2.625 8.75012V10.5001C2.625 10.7322 2.71719 10.9547 2.88128 11.1188C3.04538 11.2829 3.26794 11.3751 3.5 11.3751H4.375V16.6251C4.375 17.3213 4.65156 17.989 5.14384 18.4813C5.63613 18.9736 6.30381 19.2501 7 19.2501H14C14.6962 19.2501 15.3639 18.9736 15.8562 18.4813C16.3484 17.989 16.625 17.3213 16.625 16.6251V11.3751H17.5C17.7321 11.3751 17.9546 11.2829 18.1187 11.1188C18.2828 10.9547 18.375 10.7322 18.375 10.5001V8.75012C18.375 8.05393 18.0984 7.38625 17.6062 6.89397C17.1139 6.40169 16.4462 6.12512 15.75 6.12512ZM9.625 17.5001H7C6.76794 17.5001 6.54538 17.4079 6.38128 17.2438C6.21719 17.0797 6.125 16.8572 6.125 16.6251V11.3751H9.625V17.5001ZM9.625 9.62512H4.375V8.75012C4.375 8.51806 4.46719 8.2955 4.63128 8.13141C4.79538 7.96731 5.01794 7.87512 5.25 7.87512H9.625V9.62512ZM9.625 6.12512H8.3125C8.05291 6.12512 7.79915 6.04815 7.58331 5.90393C7.36748 5.75971 7.19925 5.55472 7.09991 5.3149C7.00057 5.07507 6.97458 4.81117 7.02522 4.55657C7.07586 4.30197 7.20087 4.0681 7.38442 3.88455C7.56798 3.70099 7.80184 3.57599 8.05644 3.52534C8.31104 3.4747 8.57494 3.50069 8.81477 3.60003C9.0546 3.69937 9.25958 3.8676 9.4038 4.08344C9.54802 4.29928 9.625 4.55304 9.625 4.81262V6.12512ZM11.375 4.81262C11.375 4.55304 11.452 4.29928 11.5962 4.08344C11.7404 3.8676 11.9454 3.69937 12.1852 3.60003C12.4251 3.50069 12.689 3.4747 12.9436 3.52534C13.1982 3.57599 13.432 3.70099 13.6156 3.88455C13.7991 4.0681 13.9241 4.30197 13.9748 4.55657C14.0254 4.81117 13.9994 5.07507 13.9001 5.3149C13.8008 5.55472 13.6325 5.75971 13.4167 5.90393C13.2008 6.04815 12.9471 6.12512 12.6875 6.12512H11.375V4.81262ZM14.875 16.6251C14.875 16.8572 14.7828 17.0797 14.6187 17.2438C14.4546 17.4079 14.2321 17.5001 14 17.5001H11.375V11.3751H14.875V16.6251ZM16.625 9.62512H11.375V7.87512H15.75C15.9821 7.87512 16.2046 7.96731 16.3687 8.13141C16.5328 8.2955 16.625 8.51806 16.625 8.75012V9.62512Z" fill="#394263"/>
</svg>
