<svg width="81" height="81" viewBox="0 0 81 81" fill="none" xmlns="http://www.w3.org/2000/svg">
<path d="M80.7853 40.3361C80.7853 18.059 62.7263 0 40.4493 0C18.1723 0 0.113281 18.059 0.113281 40.3361C0.113281 60.4689 14.8636 77.1561 34.1468 80.1821V51.9957H23.9053V40.3361H34.1468V31.4495C34.1468 21.3403 40.1687 15.7563 49.3823 15.7563C53.7955 15.7563 58.4115 16.5441 58.4115 16.5441V26.4705H53.3252C48.3145 26.4705 46.7519 29.5798 46.7519 32.7697V40.3361H57.9388L56.1504 51.9957H46.7518V80.1821C66.0351 77.1561 80.7853 60.4689 80.7853 40.3361Z" fill="#1877F2"/>
<path d="M56.1505 51.9957L57.9388 40.3361H46.7518V32.7697C46.7518 29.5799 48.3145 26.4706 53.3252 26.4706H58.4115V16.5441C58.4115 16.5441 53.7955 15.7563 49.3823 15.7563C40.1687 15.7563 34.1468 21.3403 34.1468 31.4496V40.3361H23.9053V51.9957H34.1468V80.1821C36.2318 80.5089 38.339 80.6727 40.4494 80.6721C42.5935 80.6721 44.6982 80.5043 46.7518 80.1821V51.9957H56.1505Z" fill="white"/>
</svg>
