<svg width="79" height="79" viewBox="0 0 79 79" fill="none" xmlns="http://www.w3.org/2000/svg">
<path d="M39.3651 0C22.9359 0 18.131 0.0169532 17.197 0.0944533C13.8254 0.374786 11.7274 0.905783 9.44182 2.04407C7.68038 2.91897 6.2912 3.93313 4.92019 5.35478C2.42331 7.9474 0.910043 11.137 0.362241 14.9285C0.0959072 16.7691 0.0184282 17.1445 0.00269024 26.5462C-0.00336281 29.6801 0.00269024 33.8046 0.00269024 39.3368C0.00269024 55.7571 0.0208494 60.5585 0.0995391 61.4909C0.371926 64.7726 0.886436 66.8372 1.97598 69.0956C4.05823 73.4187 8.03509 76.664 12.7201 77.875C14.3424 78.2927 16.1341 78.5228 18.4342 78.6318C19.4088 78.6742 29.3418 78.7045 39.2809 78.7045C49.22 78.7045 59.1592 78.6924 60.1095 78.6439C62.7728 78.5186 64.3194 78.3109 66.0294 77.8689C68.3524 77.273 70.5174 76.177 72.3732 74.6575C74.2289 73.138 75.7307 71.2316 76.7735 69.0714C77.8419 66.8675 78.3836 64.7242 78.6288 61.6138C78.6821 60.9357 78.7045 50.1238 78.7045 39.3265C78.7045 28.5273 78.6802 17.7354 78.627 17.0573C78.3788 13.8968 77.8371 11.7716 76.7342 9.52526C75.8293 7.68644 74.8244 6.31324 73.3657 4.90915C70.7629 2.42188 67.5789 0.908205 63.7843 0.36086C61.946 0.0950588 61.5798 0.0163477 52.1733 0H39.3651Z" fill="url(#paint0_radial_360_261)"/>
<path d="M39.3651 0C22.9359 0 18.131 0.0169532 17.197 0.0944533C13.8254 0.374786 11.7274 0.905783 9.44182 2.04407C7.68038 2.91897 6.2912 3.93313 4.92019 5.35478C2.42331 7.9474 0.910043 11.137 0.362241 14.9285C0.0959072 16.7691 0.0184282 17.1445 0.00269024 26.5462C-0.00336281 29.6801 0.00269024 33.8046 0.00269024 39.3368C0.00269024 55.7571 0.0208494 60.5585 0.0995391 61.4909C0.371926 64.7726 0.886436 66.8372 1.97598 69.0956C4.05823 73.4187 8.03509 76.664 12.7201 77.875C14.3424 78.2927 16.1341 78.5228 18.4342 78.6318C19.4088 78.6742 29.3418 78.7045 39.2809 78.7045C49.22 78.7045 59.1592 78.6924 60.1095 78.6439C62.7728 78.5186 64.3194 78.3109 66.0294 77.8689C68.3524 77.273 70.5174 76.177 72.3732 74.6575C74.2289 73.138 75.7307 71.2316 76.7735 69.0714C77.8419 66.8675 78.3836 64.7242 78.6288 61.6138C78.6821 60.9357 78.7045 50.1238 78.7045 39.3265C78.7045 28.5273 78.6802 17.7354 78.627 17.0573C78.3788 13.8968 77.8371 11.7716 76.7342 9.52526C75.8293 7.68644 74.8244 6.31324 73.3657 4.90915C70.7629 2.42188 67.5789 0.908205 63.7843 0.36086C61.946 0.0950588 61.5798 0.0163477 52.1733 0H39.3651Z" fill="url(#paint1_radial_360_261)"/>
<path d="M39.3469 10.293C31.4561 10.293 30.4658 10.3275 27.3667 10.4686C24.2736 10.6102 22.1623 11.1001 20.3149 11.8188C18.4039 12.5611 16.7829 13.554 15.168 15.17C13.5518 16.7854 12.5591 18.4069 11.8146 20.3177C11.0943 22.1662 10.604 24.2787 10.4647 27.3715C10.3267 30.4715 10.2904 31.4626 10.2904 39.3555C10.2904 47.2484 10.3255 48.236 10.4659 51.336C10.6082 54.4299 11.0979 56.5418 11.8158 58.3897C12.5585 60.3012 13.5512 61.9226 15.1667 63.538C16.7811 65.1546 18.4021 66.15 20.3118 66.8923C22.1604 67.611 24.2723 68.1008 27.3649 68.2425C30.464 68.3836 31.4537 68.4181 39.3438 68.4181C47.2352 68.4181 48.2225 68.3836 51.3216 68.2425C54.4147 68.1008 56.5285 67.611 58.3771 66.8923C60.2874 66.15 61.906 65.1546 63.5203 63.538C65.1365 61.9226 66.1292 60.3012 66.8737 58.3903C67.588 56.5418 68.0783 54.4293 68.2236 51.3366C68.3628 48.2366 68.3991 47.2484 68.3991 39.3555C68.3991 31.4626 68.3628 30.4721 68.2236 27.3721C68.0783 24.2781 67.588 22.1662 66.8737 20.3183C66.1292 18.4069 65.1365 16.7854 63.5203 15.17C61.9042 13.5534 60.288 12.5605 58.3752 11.8188C56.523 11.1001 54.4105 10.6102 51.3174 10.4686C48.2182 10.3275 47.2316 10.293 39.3384 10.293H39.3469ZM36.7404 15.5303C37.514 15.5291 38.3772 15.5303 39.3469 15.5303C47.1045 15.5303 48.0239 15.5581 51.0874 15.6974C53.9202 15.827 55.4577 16.3004 56.4818 16.6982C57.8377 17.225 58.8044 17.8547 59.8207 18.8719C60.8376 19.8891 61.4671 20.8578 61.995 22.2141C62.3926 23.2373 62.8666 24.7752 62.9955 27.6088C63.1348 30.6725 63.165 31.5928 63.165 39.3489C63.165 47.1049 63.1348 48.0253 62.9955 51.0889C62.866 53.9225 62.3926 55.4604 61.995 56.4837C61.4683 57.8399 60.8376 58.8057 59.8207 59.8222C58.8038 60.8394 57.8383 61.4691 56.4818 61.9959C55.4589 62.3955 53.9202 62.8678 51.0874 62.9973C48.0245 63.1366 47.1045 63.1669 39.3469 63.1669C31.5887 63.1669 30.6692 63.1366 27.6064 62.9973C24.7735 62.8665 23.2361 62.3931 22.2113 61.9953C20.8554 61.4685 19.8869 60.8388 18.87 59.8216C17.8531 58.8044 17.2236 57.8381 16.6957 56.4813C16.2981 55.458 15.8241 53.9201 15.6952 51.0865C15.556 48.0228 15.5281 47.1025 15.5281 39.3416C15.5281 31.5807 15.556 30.6652 15.6952 27.6015C15.8247 24.7679 16.2981 23.23 16.6957 22.2056C17.2224 20.8493 17.8531 19.8806 18.87 18.8634C19.8869 17.8462 20.8554 17.2165 22.2113 16.6885C23.2355 16.2889 24.7735 15.8167 27.6064 15.6865C30.2867 15.5654 31.3254 15.5291 36.7404 15.523V15.5303ZM54.856 20.3559C54.1664 20.3559 53.4922 20.5605 52.9188 20.9437C52.3455 21.327 51.8986 21.8717 51.6347 22.5091C51.3709 23.1464 51.3019 23.8477 51.4365 24.5242C51.5711 25.2008 51.9033 25.8222 52.3911 26.3099C52.8788 26.7975 53.5001 27.1296 54.1765 27.264C54.8529 27.3985 55.554 27.3292 56.1911 27.0651C56.8281 26.8009 57.3726 26.3537 57.7556 25.7801C58.1385 25.2064 58.3428 24.532 58.3426 23.8422C58.3426 21.9168 56.7809 20.3547 54.856 20.3547V20.3559ZM39.3469 24.4307C31.1068 24.4307 24.4261 31.1133 24.4261 39.3555C24.4261 47.5978 31.1068 54.2773 39.3469 54.2773C47.5869 54.2773 54.2658 47.5978 54.2658 39.3555C54.2658 31.1133 47.5863 24.4307 39.3463 24.4307H39.3469ZM39.3469 29.668C44.6953 29.668 49.0317 34.005 49.0317 39.3555C49.0317 44.7055 44.6953 49.0431 39.3469 49.0431C33.9978 49.0431 29.662 44.7055 29.662 39.3555C29.662 34.005 33.9978 29.668 39.3469 29.668Z" fill="white"/>
<defs>
<radialGradient id="paint0_radial_360_261" cx="0" cy="0" r="1" gradientUnits="userSpaceOnUse" gradientTransform="translate(20.906 84.7663) rotate(-90) scale(78.0019 72.5479)">
<stop stop-color="#FFDD55"/>
<stop offset="0.1" stop-color="#FFDD55"/>
<stop offset="0.5" stop-color="#FF543E"/>
<stop offset="1" stop-color="#C837AB"/>
</radialGradient>
<radialGradient id="paint1_radial_360_261" cx="0" cy="0" r="1" gradientUnits="userSpaceOnUse" gradientTransform="translate(-13.1834 5.66974) rotate(78.6806) scale(34.8672 143.724)">
<stop stop-color="#3771C8"/>
<stop offset="0.128" stop-color="#3771C8"/>
<stop offset="1" stop-color="#6600FF" stop-opacity="0"/>
</radialGradient>
</defs>
</svg>
