<svg width="80" height="79" viewBox="0 0 80 79" fill="none" xmlns="http://www.w3.org/2000/svg">
<path d="M39.7612 78.7045C61.4948 78.7045 79.1134 61.0859 79.1134 39.3522C79.1134 17.6186 61.4948 0 39.7612 0C18.0275 0 0.408936 17.6186 0.408936 39.3522C0.408936 61.0859 18.0275 78.7045 39.7612 78.7045Z" fill="url(#paint0_linear_360_266)"/>
<path d="M16.7867 39.0109L43.2869 28.0923C45.9028 26.955 54.7741 23.3155 54.7741 23.3155C54.7741 23.3155 58.8685 21.7232 58.5273 25.5902C58.4136 27.1825 57.5037 32.7555 56.5938 38.7834L53.7505 56.6398C53.7505 56.6398 53.523 59.2557 51.5895 59.7106C49.656 60.1655 46.4714 58.1183 45.9028 57.6634C45.4478 57.3222 37.3727 52.2041 34.4156 49.7019C33.6194 49.0195 32.7095 47.6547 34.5293 46.0624C38.6237 42.3092 43.5143 37.6461 46.4714 34.689C47.8363 33.3241 49.2011 30.1396 43.5143 34.0065L27.4777 44.8113C27.4777 44.8113 25.658 45.9487 22.2459 44.9251C18.8339 43.9015 14.8532 42.5367 14.8532 42.5367C14.8532 42.5367 12.1235 40.8306 16.7867 39.0109Z" fill="white"/>
<defs>
<linearGradient id="paint0_linear_360_266" x1="52.8816" y1="13.1204" x2="33.2055" y2="59.0283" gradientUnits="userSpaceOnUse">
<stop stop-color="#37AEE2"/>
<stop offset="1" stop-color="#1E96C8"/>
</linearGradient>
</defs>
</svg>
