<svg width="80" height="79" viewBox="0 0 80 79" fill="none" xmlns="http://www.w3.org/2000/svg">
<path fill-rule="evenodd" clip-rule="evenodd" d="M52.1247 0C74.162 0 79.4089 5.24696 79.4089 27.2842V51.4202C79.4089 73.4575 74.162 78.7045 52.1247 78.7045H27.9887C5.95143 78.7045 0.704468 73.4575 0.704468 51.4202V27.2842C0.704468 5.24696 5.95143 0 27.9887 0H52.1247ZM22.0203 24.5951H16.2814C14.6417 24.5951 14.3138 25.3822 14.3138 26.202C14.3138 27.7433 16.2486 35.2858 23.3648 45.2551C25.2474 48.2631 27.8158 50.7823 30.8597 52.6063C33.9035 54.4303 37.3362 55.5073 40.8765 55.749C44.5166 55.749 44.9757 54.9291 44.9757 53.519V48.3704C44.9757 46.7308 45.3365 46.4028 46.4842 46.4028C47.632 46.4028 48.7798 46.8291 52.1903 50.1085C56.0927 54.0109 56.7158 55.749 58.913 55.749H64.6518C66.2915 55.749 67.1114 54.9291 66.6522 53.3223C65.4304 50.8205 63.7888 48.5467 61.7988 46.5996C60.4543 44.9927 58.5194 43.3202 57.8308 42.4676C57.1421 41.615 57.2405 40.8607 57.8308 39.9097C60.8696 35.8249 63.4641 31.4275 65.5701 26.7923C65.9308 25.5789 65.5701 24.6935 63.832 24.6935H58.0931C57.5613 24.6643 57.0339 24.804 56.5863 25.0926C56.1386 25.3812 55.7937 25.8039 55.6008 26.3004C53.8225 30.53 51.4482 34.4834 48.5502 38.0405C47.2057 39.385 46.5826 39.8113 45.8611 39.8113C45.1397 39.8113 44.9757 39.385 44.9757 38.1717V26.6939C44.9757 25.251 44.5494 24.5951 43.336 24.5951H34.3178C33.9491 24.5771 33.588 24.7044 33.3121 24.9496C33.0362 25.1949 32.8674 25.5386 32.8421 25.9069C32.8421 27.2842 34.9409 27.6121 35.1377 31.5146V39.9425C35.1377 41.8117 34.8097 42.1397 34.0883 42.1397C32.1207 42.1397 27.5296 34.9907 24.5782 26.8251C24.0535 25.251 23.6599 24.5951 22.0203 24.5951Z" fill="#4872A3"/>
</svg>
