<svg width="42" height="42" viewBox="0 0 42 42" fill="none" xmlns="http://www.w3.org/2000/svg">
<path d="M21 1.75C17.1927 1.75 13.4709 2.87899 10.3053 4.99421C7.13964 7.10943 4.67231 10.1159 3.21533 13.6333C1.75834 17.1508 1.37713 21.0214 2.11989 24.7555C2.86266 28.4896 4.69604 31.9196 7.3882 34.6118C10.0804 37.304 13.5104 39.1373 17.2445 39.8801C20.9787 40.6229 24.8492 40.2417 28.3667 38.7847C31.8841 37.3277 34.8906 34.8604 37.0058 31.6947C39.121 28.5291 40.25 24.8073 40.25 21C40.25 15.8946 38.2219 10.9983 34.6118 7.38819C31.0017 3.77812 26.1054 1.75 21 1.75V1.75ZM21 36.75C17.885 36.75 14.8399 35.8263 12.2498 34.0956C9.6597 32.365 7.64099 29.9052 6.44891 27.0273C5.25683 24.1493 4.94492 20.9825 5.55264 17.9273C6.16036 14.8721 7.6604 12.0657 9.86308 9.86307C12.0658 7.66039 14.8721 6.16035 17.9273 5.55263C20.9825 4.94491 24.1493 5.25682 27.0273 6.4489C29.9052 7.64098 32.365 9.65969 34.0957 12.2498C35.8263 14.8398 36.75 17.8849 36.75 21C36.75 25.1772 35.0906 29.1832 32.1369 32.1369C29.1832 35.0906 25.1772 36.75 21 36.75V36.75ZM22.0325 13.4225C22.931 13.4454 23.8121 13.6753 24.6073 14.0941C25.4025 14.513 26.0904 15.1095 26.6175 15.8375C26.8986 16.2061 27.3144 16.4481 27.7737 16.5105C28.2331 16.5728 28.6984 16.4504 29.0675 16.17C29.2512 16.0294 29.4052 15.8538 29.5206 15.6533C29.636 15.4528 29.7105 15.2314 29.7397 15.002C29.769 14.7725 29.7526 14.5395 29.6912 14.3165C29.6299 14.0934 29.525 13.8847 29.3825 13.7025C28.5311 12.5491 27.4249 11.6078 26.15 10.9522C24.8751 10.2965 23.466 9.94413 22.0325 9.9225C20.0285 9.98082 18.0912 10.6557 16.4846 11.8551C14.8781 13.0545 13.6805 14.7202 13.055 16.625H10.5C10.0359 16.625 9.59076 16.8094 9.26257 17.1376C8.93438 17.4658 8.75001 17.9109 8.75001 18.375C8.75001 18.8391 8.93438 19.2842 9.26257 19.6124C9.59076 19.9406 10.0359 20.125 10.5 20.125H12.25C12.25 20.4225 12.25 20.7025 12.25 21C12.25 21.2975 12.25 21.5775 12.25 21.875H10.5C10.0359 21.875 9.59076 22.0594 9.26257 22.3876C8.93438 22.7158 8.75001 23.1609 8.75001 23.625C8.75001 24.0891 8.93438 24.5342 9.26257 24.8624C9.59076 25.1906 10.0359 25.375 10.5 25.375H13.055C13.6805 27.2798 14.8781 28.9455 16.4846 30.1449C18.0912 31.3443 20.0285 32.0192 22.0325 32.0775C23.466 32.0559 24.8751 31.7035 26.15 31.0478C27.4249 30.3922 28.5311 29.4509 29.3825 28.2975C29.5708 28.1225 29.7182 27.9082 29.8143 27.6698C29.9103 27.4314 29.9527 27.1748 29.9384 26.9182C29.9241 26.6616 29.8534 26.4113 29.7314 26.185C29.6094 25.9588 29.4391 25.7622 29.2326 25.6093C29.026 25.4563 28.7883 25.3508 28.5363 25.3001C28.2844 25.2494 28.0243 25.2548 27.7747 25.3159C27.525 25.3771 27.2919 25.4925 27.0919 25.6539C26.8919 25.8154 26.73 26.0189 26.6175 26.25C26.0904 26.978 25.4025 27.5745 24.6073 27.9934C23.8121 28.4122 22.931 28.6421 22.0325 28.665C20.9646 28.6228 19.9274 28.2954 19.0288 27.7169C18.1302 27.1383 17.4029 26.3297 16.9225 25.375H21C21.4641 25.375 21.9093 25.1906 22.2374 24.8624C22.5656 24.5342 22.75 24.0891 22.75 23.625C22.75 23.1609 22.5656 22.7158 22.2374 22.3876C21.9093 22.0594 21.4641 21.875 21 21.875H15.8375C15.791 21.5853 15.7618 21.2931 15.75 21C15.7618 20.7069 15.791 20.4147 15.8375 20.125H21C21.4641 20.125 21.9093 19.9406 22.2374 19.6124C22.5656 19.2842 22.75 18.8391 22.75 18.375C22.75 17.9109 22.5656 17.4658 22.2374 17.1376C21.9093 16.8094 21.4641 16.625 21 16.625H16.9225C17.4146 15.6867 18.1469 14.8958 19.0447 14.3331C19.9425 13.7705 20.9735 13.4562 22.0325 13.4225V13.4225Z" fill="#2B3042"/>
</svg>
