<svg width="43" height="43" viewBox="0 0 43 43" fill="none" xmlns="http://www.w3.org/2000/svg">
<path d="M42.9279 16.2576C42.7923 15.8465 42.5457 15.4855 42.2179 15.2182C41.8901 14.9509 41.4953 14.7889 41.0814 14.7519L28.8645 12.8866L23.3895 1.26775C23.2137 0.887792 22.9391 0.567349 22.5974 0.343134C22.2556 0.118919 21.8604 0 21.4571 0C21.0538 0 20.6586 0.118919 20.3168 0.343134C19.975 0.567349 19.7005 0.887792 19.5247 1.26775L14.0497 12.8641L1.83281 14.7519C1.43543 14.811 1.06185 14.9855 0.75444 15.2556C0.447035 15.5258 0.218121 15.8807 0.0936765 16.2801C-0.0202367 16.6704 -0.0304591 17.0858 0.0641064 17.4817C0.158672 17.8776 0.354456 18.2391 0.630446 18.5274L9.49788 27.5168L7.3508 40.2818C7.26411 40.7052 7.29616 41.1459 7.44309 41.5507C7.59002 41.9556 7.84556 42.3073 8.17899 42.5637C8.51241 42.8202 8.90952 42.9703 9.32252 42.996C9.73553 43.0218 10.1468 42.9221 10.507 42.7089L21.4571 36.7085L32.4072 42.7089C32.7085 42.8869 33.0489 42.9798 33.3948 42.9786C33.8497 42.9803 34.2932 42.8308 34.6616 42.5516C34.9947 42.3019 35.2526 41.9575 35.4048 41.5593C35.557 41.1611 35.5971 40.7256 35.5205 40.3043L33.3734 27.5393L42.2408 18.5499C42.5508 18.275 42.7799 17.9137 42.9015 17.5079C43.0232 17.1021 43.0323 16.6686 42.9279 16.2576ZM29.7233 25.247C29.4748 25.4996 29.2884 25.8114 29.18 26.1558C29.0716 26.5002 29.0444 26.8669 29.1007 27.2247L30.6466 36.6636L22.5736 32.1689C22.2598 32.0064 21.9145 31.9219 21.5645 31.9219C21.2144 31.9219 20.8691 32.0064 20.5553 32.1689L12.4823 36.6636L14.0282 27.2247C14.0845 26.8669 14.0573 26.5002 13.9489 26.1558C13.8405 25.8114 13.6541 25.4996 13.4056 25.247L6.96432 18.5049L16.0035 17.1341C16.3513 17.0834 16.682 16.9443 16.9665 16.7288C17.251 16.5133 17.4806 16.228 17.6353 15.898L21.4571 7.33561L25.4936 15.9205C25.6483 16.2505 25.8779 16.5357 26.1624 16.7512C26.4469 16.9667 26.7776 17.1059 27.1254 17.1565L36.1646 18.5274L29.7233 25.247Z" fill="#2B3042"/>
</svg>
