<svg width="43" height="43" viewBox="0 0 43 43" fill="none" xmlns="http://www.w3.org/2000/svg">
<path d="M37.4229 17.7099C36.9293 17.1172 36.3115 16.64 35.6133 16.3122C34.915 15.9843 34.1534 15.8137 33.382 15.8124H25.3703L26.3542 13.2999C26.7634 12.1999 26.8997 11.017 26.7514 9.85267C26.603 8.68837 26.1744 7.57743 25.5024 6.61516C24.8304 5.65289 23.9349 4.868 22.8929 4.32782C21.8509 3.78764 20.6934 3.5083 19.5197 3.51375C19.1817 3.51446 18.8511 3.61262 18.5675 3.79648C18.284 3.98034 18.0594 4.24209 17.9209 4.55035L12.9136 15.8124H8.78475C7.38684 15.8124 6.04618 16.3677 5.05771 17.3562C4.06923 18.3446 3.51392 19.6853 3.51392 21.0832V33.3818C3.51392 34.7797 4.06923 36.1204 5.05771 37.1089C6.04618 38.0973 7.38684 38.6526 8.78475 38.6526H31.1507C32.3837 38.6522 33.5776 38.2195 34.5246 37.4299C35.4715 36.6402 36.1117 35.5435 36.3336 34.3306L38.565 22.0319C38.703 21.2719 38.6722 20.4907 38.4749 19.7438C38.2775 18.997 37.9184 18.3026 37.4229 17.7099ZM12.2986 35.1388H8.78475C8.31878 35.1388 7.87189 34.9536 7.5424 34.6242C7.21291 34.2947 7.02781 33.8478 7.02781 33.3818V21.0832C7.02781 20.6172 7.21291 20.1703 7.5424 19.8409C7.87189 19.5114 8.31878 19.3263 8.78475 19.3263H12.2986V35.1388ZM35.1389 21.3994L32.9076 33.6981C32.8328 34.1074 32.6151 34.4768 32.2933 34.7406C31.9716 35.0045 31.5667 35.1455 31.1507 35.1388H15.8125V17.9383L20.5914 7.18576C21.0833 7.32918 21.5402 7.57301 21.9331 7.90187C22.3261 8.23073 22.6466 8.63747 22.8744 9.09643C23.1022 9.55539 23.2324 10.0566 23.2568 10.5684C23.2812 11.0802 23.1992 11.5915 23.016 12.0701L22.0848 14.5825C21.8864 15.1135 21.8194 15.6847 21.8896 16.2473C21.9597 16.8098 22.165 17.347 22.4877 17.8131C22.8105 18.2791 23.2413 18.6601 23.7432 18.9236C24.2452 19.1871 24.8034 19.3253 25.3703 19.3263H33.382C33.6401 19.3258 33.8951 19.3823 34.1289 19.4916C34.3628 19.6009 34.5696 19.7604 34.7348 19.9588C34.9041 20.1543 35.0281 20.3849 35.0979 20.6339C35.1678 20.883 35.1818 21.1444 35.1389 21.3994Z" fill="#2B3042"/>
</svg>
