<svg width="1440" height="2090" viewBox="0 0 1440 2090" fill="none" xmlns="http://www.w3.org/2000/svg">
<path fill-rule="evenodd" clip-rule="evenodd" d="M1401.94 971.391C1481.35 965.623 1548.81 1025.24 1625.54 1046.49C1718.5 1072.23 1862.84 1023.18 1904.03 1110.42C1950.97 1209.85 1817.77 1310.89 1801.73 1419.67C1792.31 1483.56 1819.48 1545.17 1830.53 1608.8C1847.39 1705.92 1961.46 1834.36 1884.41 1895.82C1795.65 1966.61 1668.37 1831.61 1554.9 1828.65C1500.09 1827.23 1448.85 1854.87 1401.94 1883.25C1301.77 1943.84 1240.15 2082.7 1123.3 2089.73C1026.73 2095.54 922.575 2006.98 897.181 1913.6C868.571 1808.4 1010.06 1712.09 991.388 1604.68C974.194 1505.78 811.477 1474.35 803.422 1374.29C796.188 1284.43 883.385 1209.07 955.15 1154.53C1022.43 1103.4 1115.26 1109.92 1193.45 1077.87C1266.57 1047.9 1323.13 977.115 1401.94 971.391Z" fill="#394263" fill-opacity="0.1"/>
<path fill-rule="evenodd" clip-rule="evenodd" d="M-461.481 1127.22C-518.701 1071.85 -519.202 981.829 -554.495 910.455C-597.248 823.994 -730.007 749.056 -692.406 660.209C-649.552 558.951 -485.453 590.937 -393.654 530.408C-339.739 494.86 -311.908 433.539 -271.829 382.902C-210.649 305.603 -190.9 134.97 -93.7282 151.465C18.2014 170.465 2.36034 355.327 75.7765 441.907C111.231 483.719 165.99 503.504 218.408 519.571C330.335 553.88 474.941 507.294 558.045 589.734C626.725 657.866 630.105 794.539 577.404 875.698C518.03 967.135 351.935 925.816 284.291 1011.32C222.009 1090.04 307.008 1232.31 237.771 1304.99C175.587 1370.27 61.2941 1355.47 -27.1962 1338.31C-110.158 1322.22 -167.153 1248.66 -243.153 1211.72C-314.227 1177.17 -404.692 1182.17 -461.481 1127.22Z" fill="#394263" fill-opacity="0.1"/>
</svg>
