<svg width="1440" height="8042" viewBox="0 0 1440 8042" fill="none" xmlns="http://www.w3.org/2000/svg">
<path fill-rule="evenodd" clip-rule="evenodd" d="M163.18 1204.16C54.143 1252.93 -49.1876 1114.07 -152.914 1054.81C-254.714 996.652 -407.584 975.244 -436.465 861.579C-466.215 744.495 -334.509 652.386 -282.919 543.168C-247.732 468.675 -226.409 393.673 -182.518 323.958C-122.019 227.862 -92.8475 58.544 20.6497 60.9878C141.136 63.5821 164.808 243.275 245.132 333.166C291.152 384.668 343.759 422.828 389.901 474.22C459.548 551.79 605.71 608.163 583.498 710.028C561.06 812.928 376.503 768.337 308.279 848.542C223.258 948.493 282.944 1150.6 163.18 1204.16Z" fill="#ECEAED"/>
<path fill-rule="evenodd" clip-rule="evenodd" d="M1443.22 328.833C1557.45 293.931 1642.81 444.505 1738.4 516.142C1832.23 586.45 1981.27 626.607 1995.87 742.972C2010.91 862.837 1868.82 937.943 1804.11 1039.94C1759.98 1109.51 1729.54 1181.29 1677.36 1245.04C1605.44 1332.92 1555.54 1497.32 1443.22 1480.86C1323.98 1463.38 1322.72 1282.13 1254.13 1183C1214.84 1126.2 1167.36 1081.82 1127.93 1025.11C1068.41 939.524 930.348 865.501 964.993 767.167C999.989 667.833 1177.61 734.916 1255.23 663.768C1351.97 575.103 1317.75 367.169 1443.22 328.833Z" fill="#766881" fill-opacity="0.14"/>
<path fill-rule="evenodd" clip-rule="evenodd" d="M1466.01 3599.28C1582.56 3563.67 1669.65 3717.29 1767.18 3790.38C1862.91 3862.12 2014.98 3903.09 2029.87 4021.81C2045.21 4144.11 1900.24 4220.74 1834.22 4324.8C1789.19 4395.78 1758.14 4469.03 1704.9 4534.07C1631.52 4623.72 1580.61 4791.46 1466.01 4774.66C1344.35 4756.83 1343.07 4571.91 1273.09 4470.76C1233 4412.81 1184.56 4367.54 1144.33 4309.68C1083.61 4222.35 942.74 4146.83 978.087 4046.5C1013.79 3945.15 1195.02 4013.59 1274.22 3941C1372.91 3850.54 1337.99 3638.39 1466.01 3599.28Z" fill="#766881" fill-opacity="0.14"/>
<path fill-rule="evenodd" clip-rule="evenodd" d="M169.864 5332.77C70.9973 5404.03 -60.9349 5286.64 -176.816 5248.86C-290.546 5211.79 -447.707 5221.99 -500.049 5114.39C-553.966 5003.55 -441.404 4884.31 -412.426 4764.52C-392.661 4682.82 -386.853 4603.48 -357.404 4524.76C-316.812 4416.24 -322.65 4241.04 -208.746 4220.03C-87.8275 4197.73 -27.0475 4372.38 71.7811 4445.6C128.403 4487.54 188.849 4514.8 245.57 4556.62C331.185 4619.73 488.869 4645.85 487.723 4752.22C486.566 4859.67 292.954 4853.25 241.36 4947.48C177.065 5064.91 278.458 5254.51 169.864 5332.77Z" fill="#766881" fill-opacity="0.14"/>
<path fill-rule="evenodd" clip-rule="evenodd" d="M1480.01 1824.28C1596.56 1788.67 1683.65 1942.29 1781.18 2015.38C1876.91 2087.12 2028.98 2128.09 2043.87 2246.81C2059.21 2369.11 1914.24 2445.74 1848.22 2549.8C1803.19 2620.78 1772.14 2694.03 1718.9 2759.07C1645.52 2848.72 1594.61 3016.46 1480.01 2999.66C1358.35 2981.83 1357.07 2796.91 1287.09 2695.76C1247 2637.81 1198.56 2592.54 1158.33 2534.68C1097.61 2447.35 956.74 2371.83 992.087 2271.5C1027.79 2170.15 1209.02 2238.59 1288.22 2166C1386.91 2075.54 1351.99 1863.39 1480.01 1824.28Z" fill="#766881" fill-opacity="0.14"/>
<path fill-rule="evenodd" clip-rule="evenodd" d="M183.864 3557.77C84.9973 3629.03 -46.9349 3511.64 -162.816 3473.86C-276.546 3436.79 -433.707 3446.99 -486.049 3339.39C-539.966 3228.55 -427.404 3109.31 -398.426 2989.52C-378.661 2907.82 -372.853 2828.48 -343.404 2749.76C-302.812 2641.24 -308.65 2466.04 -194.746 2445.03C-73.8275 2422.73 -13.0475 2597.38 85.7811 2670.6C142.403 2712.54 202.849 2739.8 259.57 2781.62C345.185 2844.73 502.869 2870.85 501.723 2977.22C500.566 3084.67 306.954 3078.25 255.36 3172.48C191.065 3289.91 292.458 3479.51 183.864 3557.77Z" fill="#766881" fill-opacity="0.14"/>
<path fill-rule="evenodd" clip-rule="evenodd" d="M366.864 7064.82C267.997 7136.08 136.065 7018.69 20.1835 6980.92C-93.5461 6943.84 -250.707 6954.04 -303.049 6846.44C-356.966 6735.6 -244.404 6616.36 -215.426 6496.57C-195.661 6414.87 -189.853 6335.53 -160.404 6256.81C-119.812 6148.29 -125.65 5973.09 -11.7458 5952.08C109.173 5929.78 169.952 6104.43 268.781 6177.65C325.403 6219.6 385.849 6246.85 442.57 6288.67C528.185 6351.78 685.869 6377.9 684.723 6484.27C683.566 6591.72 489.954 6585.3 438.36 6679.53C374.065 6796.96 475.458 6986.56 366.864 7064.82Z" fill="#766881" fill-opacity="0.14"/>
<path fill-rule="evenodd" clip-rule="evenodd" d="M1739.87 7854.82C1641 7926.08 1509.07 7808.69 1393.19 7770.92C1279.46 7733.84 1122.3 7744.04 1069.95 7636.44C1016.04 7525.6 1128.6 7406.36 1157.58 7286.57C1177.34 7204.87 1183.15 7125.53 1212.6 7046.81C1253.19 6938.29 1247.35 6763.09 1361.26 6742.08C1482.18 6719.78 1542.96 6894.43 1641.79 6967.65C1698.41 7009.6 1758.85 7036.85 1815.57 7078.67C1901.19 7141.78 2058.87 7167.9 2057.73 7274.27C2056.57 7381.72 1862.96 7375.3 1811.36 7469.53C1747.07 7586.96 1848.46 7776.56 1739.87 7854.82Z" fill="#766881" fill-opacity="0.14"/>
</svg>
