<svg width="1440" height="4573" viewBox="0 0 1440 4573" fill="none" xmlns="http://www.w3.org/2000/svg">
<path fill-rule="evenodd" clip-rule="evenodd" d="M1599.33 6.37566C1740.15 -36.6514 1845.38 148.975 1963.23 237.289C2078.9 323.964 2262.64 373.469 2280.64 516.923C2299.17 664.692 2124 757.282 2044.24 883.022C1989.83 968.784 1952.3 1057.28 1887.98 1135.87C1799.31 1244.2 1737.8 1446.88 1599.33 1426.58C1452.33 1405.03 1450.78 1181.6 1366.23 1059.38C1317.79 989.36 1259.25 934.654 1210.64 864.747C1137.27 759.231 967.069 667.976 1009.78 546.75C1052.92 424.292 1271.89 506.991 1367.59 419.28C1486.84 309.976 1444.65 53.6359 1599.33 6.37566Z" fill="#766881" fill-opacity="0.14"/>
<path fill-rule="evenodd" clip-rule="evenodd" d="M33.2117 2100.94C-86.248 2187.04 -245.66 2045.2 -385.678 1999.55C-523.097 1954.76 -712.993 1967.08 -776.237 1837.06C-841.384 1703.14 -705.377 1559.06 -670.362 1414.33C-646.481 1315.61 -639.463 1219.74 -603.88 1124.62C-554.833 993.507 -561.888 781.814 -424.258 756.429C-278.154 729.481 -204.714 940.505 -85.3009 1028.97C-16.8853 1079.66 56.151 1112.59 124.687 1163.12C228.133 1239.38 418.662 1270.94 417.277 1399.46C415.879 1529.29 181.939 1521.53 119.6 1635.39C41.9125 1777.29 164.424 2006.37 33.2117 2100.94Z" fill="#766881" fill-opacity="0.14"/>
<path fill-rule="evenodd" clip-rule="evenodd" d="M87.2117 4346.94C-32.248 4433.04 -191.66 4291.2 -331.678 4245.55C-469.097 4200.76 -658.993 4213.08 -722.237 4083.06C-787.384 3949.14 -651.377 3805.06 -616.362 3660.33C-592.481 3561.61 -585.463 3465.74 -549.88 3370.62C-500.833 3239.51 -507.888 3027.81 -370.258 3002.43C-224.154 2975.48 -150.714 3186.5 -31.3009 3274.97C37.1147 3325.66 110.151 3358.59 178.687 3409.12C282.133 3485.38 472.662 3516.94 471.277 3645.46C469.879 3775.29 235.939 3767.53 173.6 3881.39C95.9125 4023.29 218.424 4252.37 87.2117 4346.94Z" fill="#766881" fill-opacity="0.14"/>
</svg>
