<svg width="35" height="35" viewBox="0 0 35 35" fill="none" xmlns="http://www.w3.org/2000/svg">
<path d="M22.26 11.8825L14.7525 19.4075L11.865 16.52C11.7081 16.3368 11.5151 16.188 11.298 16.083C11.0808 15.9779 10.8444 15.9189 10.6033 15.9096C10.3623 15.9003 10.122 15.9409 9.89744 16.0289C9.67287 16.1169 9.46891 16.2503 9.29837 16.4209C9.12782 16.5914 8.99437 16.7954 8.90639 17.0199C8.81841 17.2445 8.7778 17.4848 8.78711 17.7258C8.79642 17.9668 8.85545 18.2033 8.96049 18.4204C9.06553 18.6376 9.21431 18.8306 9.39751 18.9875L13.51 23.1175C13.6735 23.2797 13.8675 23.408 14.0807 23.4951C14.2939 23.5822 14.5222 23.6263 14.7525 23.625C15.2116 23.6231 15.6515 23.4408 15.9775 23.1175L24.7275 14.3675C24.8915 14.2048 25.0217 14.0113 25.1106 13.798C25.1994 13.5848 25.2451 13.356 25.2451 13.125C25.2451 12.894 25.1994 12.6652 25.1106 12.452C25.0217 12.2387 24.8915 12.0452 24.7275 11.8825C24.3996 11.5566 23.9561 11.3736 23.4938 11.3736C23.0314 11.3736 22.5879 11.5566 22.26 11.8825ZM17.5 0C14.0388 0 10.6554 1.02636 7.77753 2.94928C4.89967 4.87221 2.65665 7.60533 1.33212 10.803C0.00758247 14.0007 -0.338976 17.5194 0.336265 20.9141C1.01151 24.3087 2.67822 27.4269 5.12564 29.8744C7.57306 32.3218 10.6913 33.9885 14.0859 34.6637C17.4806 35.339 20.9993 34.9924 24.197 33.6679C27.3947 32.3433 30.1278 30.1003 32.0507 27.2225C33.9736 24.3446 35 20.9612 35 17.5C35 15.2019 34.5474 12.9262 33.6679 10.803C32.7884 8.67984 31.4994 6.75065 29.8744 5.12563C28.2493 3.50061 26.3202 2.21157 24.197 1.33211C22.0738 0.452651 19.7981 0 17.5 0ZM17.5 31.5C14.7311 31.5 12.0243 30.6789 9.72202 29.1406C7.41973 27.6022 5.62532 25.4157 4.56569 22.8576C3.50607 20.2994 3.22882 17.4845 3.76901 14.7687C4.30921 12.053 5.64258 9.55844 7.60051 7.6005C9.55845 5.64257 12.053 4.3092 14.7687 3.76901C17.4845 3.22881 20.2994 3.50606 22.8576 4.56569C25.4157 5.62531 27.6022 7.41973 29.1406 9.72201C30.6789 12.0243 31.5 14.7311 31.5 17.5C31.5 21.213 30.025 24.774 27.3995 27.3995C24.774 30.025 21.213 31.5 17.5 31.5Z" fill="#394263"/>
</svg>
