<svg width="165" height="34" viewBox="0 0 165 34" fill="none" xmlns="http://www.w3.org/2000/svg">
<path d="M0.2 33V2.2H8.656C10.8462 2.2 12.8809 2.592 14.76 3.376C16.6391 4.16 18.2818 5.25511 19.688 6.66133C21.1067 8.06755 22.208 9.704 22.992 11.5707C23.7884 13.4373 24.1867 15.4533 24.1867 17.6187C24.1867 19.7964 23.7947 21.8187 23.0107 23.6853C22.2267 25.5396 21.1253 27.1698 19.7067 28.576C18.3004 29.9698 16.6516 31.0587 14.76 31.8427C12.8809 32.6142 10.8462 33 8.656 33H0.2ZM6.248 27.5867H7.984C9.37778 27.5867 10.6658 27.3378 11.848 26.84C13.0302 26.3422 14.0569 25.6453 14.928 24.7493C15.7991 23.8533 16.4773 22.8018 16.9627 21.5947C17.448 20.3751 17.6907 19.0436 17.6907 17.6C17.6907 16.1689 17.448 14.8498 16.9627 13.6427C16.4773 12.4231 15.7991 11.3653 14.928 10.4693C14.0569 9.56089 13.0302 8.85777 11.848 8.36C10.6658 7.86222 9.37778 7.61333 7.984 7.61333H6.248V27.5867ZM38.6408 33.5973C36.575 33.5973 34.7208 33.1556 33.0781 32.272C31.4479 31.376 30.1537 30.1627 29.1955 28.632C28.2372 27.1013 27.7581 25.3716 27.7581 23.4427C27.7581 22.024 28.0257 20.6987 28.5608 19.4667C29.1083 18.2347 29.8675 17.1582 30.8381 16.2373C31.8088 15.304 32.935 14.5822 34.2168 14.072C35.4986 13.5493 36.8861 13.288 38.3795 13.288C40.3706 13.288 42.1128 13.7049 43.6061 14.5387C45.1119 15.36 46.2817 16.5049 47.1155 17.9733C47.9617 19.4418 48.3848 21.1529 48.3848 23.1067C48.3848 23.2684 48.3786 23.4116 48.3661 23.536C48.3661 23.648 48.3475 23.8658 48.3101 24.1893H33.6568C33.6568 25.16 33.8746 26.0062 34.3101 26.728C34.7581 27.4498 35.3804 28.016 36.1768 28.4267C36.9732 28.8249 37.9004 29.024 38.9581 29.024C39.9537 29.024 40.831 28.8311 41.5901 28.4453C42.3617 28.0596 43.1021 27.4436 43.8115 26.5973L47.9368 28.6693C47.0408 30.2124 45.7715 31.4196 44.1288 32.2907C42.4861 33.1618 40.6568 33.5973 38.6408 33.5973ZM33.8621 21.016H42.7475C42.623 20.2818 42.3555 19.6471 41.9448 19.112C41.5466 18.5769 41.0364 18.1662 40.4141 17.88C39.7919 17.5938 39.0888 17.4507 38.3048 17.4507C37.471 17.4507 36.7368 17.5938 36.1021 17.88C35.4675 18.1662 34.9572 18.5769 34.5715 19.112C34.1857 19.6471 33.9492 20.2818 33.8621 21.016ZM53.4828 33V13.8853H59.2135V16.0133C59.9477 15.192 60.8624 14.5324 61.9575 14.0347C63.0651 13.5369 64.2846 13.288 65.6162 13.288C67.0846 13.288 68.3726 13.6116 69.4802 14.2587C70.6002 14.8933 71.4775 15.7831 72.1122 16.928C72.7468 18.0604 73.0642 19.3858 73.0642 20.904V33H67.3335V22.1173C67.3335 20.7484 66.9726 19.6844 66.2508 18.9253C65.5415 18.1538 64.5646 17.768 63.3202 17.768C62.474 17.768 61.7397 17.9422 61.1175 18.2907C60.5077 18.6267 60.0348 19.0933 59.6988 19.6907C59.3753 20.2756 59.2135 20.9413 59.2135 21.688V33H53.4828ZM79.4412 33V0.893331H85.1718V20.8667L92.2278 13.8853H99.6572L90.3052 23.256L100.087 33H92.7318L85.1718 25.44V33H79.4412ZM100.589 33L112.965 2.2H118.584L130.941 33H124.426L121.813 25.9813H109.717L107.104 33H100.589ZM111.789 20.68H119.76L115.765 10.3573L111.789 20.68ZM134.676 33V13.8853H140.406V16.6293C141.116 15.5591 141.98 14.7378 143.001 14.1653C144.034 13.5804 145.141 13.288 146.324 13.288C146.996 13.288 147.692 13.3876 148.414 13.5867C149.136 13.7858 149.74 14.0409 150.225 14.352L147.836 19.1867C147.412 18.9004 146.915 18.6764 146.342 18.5147C145.782 18.3404 145.26 18.2533 144.774 18.2533C144.028 18.2533 143.318 18.4462 142.646 18.832C141.974 19.2178 141.433 19.7218 141.022 20.344C140.612 20.9538 140.406 21.6133 140.406 22.3227V33H134.676ZM160.004 33.5973C158.1 33.5973 156.62 32.9938 155.562 31.7867C154.504 30.5671 153.975 28.8684 153.975 26.6907V18.2347H151.418V13.8853H153.975V6.71733H159.706V13.8853H163.906V18.2347H159.706V26.28C159.706 27.0018 159.849 27.5493 160.135 27.9227C160.434 28.296 160.851 28.4827 161.386 28.4827C161.983 28.4827 162.556 28.2836 163.103 27.8853L164.54 32.4773C163.893 32.8258 163.165 33.0996 162.356 33.2987C161.56 33.4978 160.776 33.5973 160.004 33.5973Z" fill="white"/>
</svg>
