<svg width="20" height="19" viewBox="0 0 20 19" fill="none" xmlns="http://www.w3.org/2000/svg">
<path d="M19.6095 9.49998C19.6095 4.25328 15.3562 0 10.1095 0C4.86278 0 0.609497 4.25328 0.609497 9.49998C0.609497 14.2417 4.0835 18.1719 8.6251 18.8845V12.2461H6.21301V9.49998H8.6251V7.40702C8.6251 5.02608 10.0434 3.71093 12.2134 3.71093C13.2528 3.71093 14.3399 3.89648 14.3399 3.89648V6.23436H13.142C11.9619 6.23436 11.5939 6.96666 11.5939 7.71794V9.49998H14.2286L13.8074 12.2461H11.5938V18.8845C16.1355 18.1719 19.6095 14.2417 19.6095 9.49998Z" fill="#1877F2"/>
<path d="M13.8074 12.2461L14.2286 9.49999H11.5939V7.71793C11.5939 6.96667 11.9619 6.23436 13.142 6.23436H14.3399V3.89648C14.3399 3.89648 13.2528 3.71094 12.2134 3.71094C10.0434 3.71094 8.62511 5.02608 8.62511 7.40702V9.49999H6.21301V12.2461H8.62511V18.8846C9.11616 18.9615 9.61245 19.0001 10.1095 19C10.6145 19 11.1102 18.9604 11.5939 18.8846V12.2461H13.8074Z" fill="white"/>
</svg>
