<svg width="19" height="19" viewBox="0 0 19 19" fill="none" xmlns="http://www.w3.org/2000/svg">
<path d="M9.27129 0C5.40188 0 4.27022 0.00399282 4.05025 0.0222457C3.25618 0.0882699 2.76206 0.213331 2.22374 0.48142C1.80889 0.687479 1.48171 0.926335 1.15881 1.26116C0.570739 1.87178 0.214334 2.623 0.0853154 3.51597C0.0225882 3.94947 0.00434022 4.03789 0.000633609 6.25219C-0.000792011 6.99029 0.000633609 7.96169 0.000633609 9.26463C0.000633609 13.132 0.00491047 14.2628 0.0234435 14.4824C0.0875964 15.2553 0.208774 15.7416 0.465386 16.2735C0.955799 17.2916 1.89243 18.056 2.99586 18.3412C3.37793 18.4396 3.79991 18.4938 4.34165 18.5194C4.57117 18.5294 6.91061 18.5365 9.25148 18.5365C11.5923 18.5365 13.9332 18.5337 14.157 18.5223C14.7843 18.4928 15.1486 18.4438 15.5513 18.3398C16.0984 18.1994 16.6083 17.9413 17.0454 17.5834C17.4825 17.2255 17.8361 16.7765 18.0818 16.2678C18.3334 15.7487 18.461 15.2439 18.5187 14.5113C18.5313 14.3516 18.5365 11.8052 18.5365 9.26221C18.5365 6.71878 18.5308 4.17706 18.5183 4.01735C18.4598 3.27297 18.3322 2.77245 18.0725 2.2434C17.8594 1.81032 17.6227 1.4869 17.2791 1.15621C16.6661 0.570403 15.9163 0.213901 15.0225 0.0849901C14.5896 0.0223883 14.5033 0.00385022 12.2879 0H9.27129Z" fill="url(#paint0_radial_387_261)"/>
<path d="M9.27129 0C5.40188 0 4.27022 0.00399282 4.05025 0.0222457C3.25618 0.0882699 2.76206 0.213331 2.22374 0.48142C1.80889 0.687479 1.48171 0.926335 1.15881 1.26116C0.570739 1.87178 0.214334 2.623 0.0853154 3.51597C0.0225882 3.94947 0.00434022 4.03789 0.000633609 6.25219C-0.000792011 6.99029 0.000633609 7.96169 0.000633609 9.26463C0.000633609 13.132 0.00491047 14.2628 0.0234435 14.4824C0.0875964 15.2553 0.208774 15.7416 0.465386 16.2735C0.955799 17.2916 1.89243 18.056 2.99586 18.3412C3.37793 18.4396 3.79991 18.4938 4.34165 18.5194C4.57117 18.5294 6.91061 18.5365 9.25148 18.5365C11.5923 18.5365 13.9332 18.5337 14.157 18.5223C14.7843 18.4928 15.1486 18.4438 15.5513 18.3398C16.0984 18.1994 16.6083 17.9413 17.0454 17.5834C17.4825 17.2255 17.8361 16.7765 18.0818 16.2678C18.3334 15.7487 18.461 15.2439 18.5187 14.5113C18.5313 14.3516 18.5365 11.8052 18.5365 9.26221C18.5365 6.71878 18.5308 4.17706 18.5183 4.01735C18.4598 3.27297 18.3322 2.77245 18.0725 2.2434C17.8594 1.81032 17.6227 1.4869 17.2791 1.15621C16.6661 0.570403 15.9163 0.213901 15.0225 0.0849901C14.5896 0.0223883 14.5033 0.00385022 12.2879 0H9.27129Z" fill="url(#paint1_radial_387_261)"/>
<path d="M9.26699 2.42407C7.40855 2.42407 7.17532 2.4322 6.4454 2.46543C5.71691 2.4988 5.21965 2.61416 4.78455 2.78343C4.33448 2.95826 3.9527 3.19212 3.57235 3.57272C3.19171 3.95318 2.95791 4.33507 2.78255 4.78511C2.61291 5.22047 2.49743 5.71801 2.46464 6.44641C2.43214 7.17653 2.42358 7.40997 2.42358 9.26891C2.42358 11.1279 2.43185 11.3604 2.46493 12.0906C2.49843 12.8192 2.61376 13.3166 2.78284 13.7519C2.95776 14.202 3.19157 14.5839 3.57206 14.9644C3.95228 15.3451 4.33406 15.5796 4.78384 15.7544C5.21922 15.9237 5.71662 16.039 6.44497 16.0724C7.17489 16.1056 7.40798 16.1138 9.26627 16.1138C11.1249 16.1138 11.3574 16.1056 12.0873 16.0724C12.8158 16.039 13.3136 15.9237 13.749 15.7544C14.1989 15.5796 14.5801 15.3451 14.9603 14.9644C15.341 14.5839 15.5748 14.202 15.7501 13.752C15.9184 13.3166 16.0338 12.8191 16.068 12.0907C16.1008 11.3606 16.1094 11.1279 16.1094 9.26891C16.1094 7.40997 16.1008 7.17667 16.068 6.44656C16.0338 5.71787 15.9184 5.22047 15.7501 4.78526C15.5748 4.33507 15.341 3.95318 14.9603 3.57272C14.5797 3.19198 14.1991 2.95811 13.7486 2.78343C13.3123 2.61416 12.8148 2.4988 12.0863 2.46543C11.3564 2.4322 11.124 2.42407 9.26499 2.42407H9.26699ZM8.65311 3.65757C8.83531 3.65728 9.0386 3.65757 9.26699 3.65757C11.0941 3.65757 11.3106 3.66413 12.0321 3.69693C12.6993 3.72744 13.0614 3.83896 13.3026 3.93265C13.622 4.05671 13.8496 4.20501 14.089 4.44458C14.3285 4.68415 14.4768 4.91231 14.6011 5.23174C14.6947 5.47274 14.8064 5.83494 14.8367 6.50231C14.8695 7.22387 14.8767 7.44063 14.8767 9.26734C14.8767 11.0941 14.8695 11.3108 14.8367 12.0324C14.8062 12.6997 14.6947 13.062 14.6011 13.3029C14.4771 13.6224 14.3285 13.8498 14.089 14.0892C13.8495 14.3288 13.6221 14.4771 13.3026 14.6012C13.0617 14.6953 12.6993 14.8065 12.0321 14.837C11.3108 14.8698 11.0941 14.877 9.26699 14.877C7.43977 14.877 7.22322 14.8698 6.50185 14.837C5.83466 14.8062 5.47256 14.6947 5.2312 14.601C4.91186 14.477 4.68376 14.3287 4.44426 14.0891C4.20475 13.8495 4.05649 13.6219 3.93217 13.3024C3.83851 13.0614 3.72689 12.6992 3.69652 12.0318C3.66373 11.3102 3.65717 11.0935 3.65717 9.26563C3.65717 7.43777 3.66373 7.22216 3.69652 6.5006C3.72703 5.83323 3.83851 5.47102 3.93217 5.22974C4.0562 4.91032 4.20475 4.68216 4.44426 4.44259C4.68376 4.20302 4.91186 4.05471 5.2312 3.93036C5.47241 3.83625 5.83466 3.72502 6.50185 3.69436C7.13312 3.66584 7.37775 3.65728 8.65311 3.65586V3.65757ZM12.9197 4.7941C12.7573 4.7941 12.5985 4.84228 12.4635 4.93255C12.3284 5.02281 12.2232 5.15111 12.161 5.30122C12.0989 5.45132 12.0826 5.61649 12.1144 5.77583C12.1461 5.93517 12.2243 6.08152 12.3392 6.19638C12.454 6.31124 12.6004 6.38945 12.7597 6.42111C12.919 6.45277 13.0841 6.43647 13.2341 6.37425C13.3842 6.31204 13.5124 6.20672 13.6026 6.07161C13.6928 5.93649 13.7409 5.77766 13.7409 5.61519C13.7409 5.16172 13.3731 4.79381 12.9197 4.79381V4.7941ZM9.26699 5.7538C7.32629 5.7538 5.75283 7.32769 5.75283 9.26891C5.75283 11.2101 7.32629 12.7833 9.26699 12.7833C11.2077 12.7833 12.7807 11.2101 12.7807 9.26891C12.7807 7.32769 11.2075 5.7538 9.26684 5.7538H9.26699ZM9.26699 6.9873C10.5267 6.9873 11.548 8.00875 11.548 9.26891C11.548 10.5289 10.5267 11.5505 9.26699 11.5505C8.00717 11.5505 6.98599 10.5289 6.98599 9.26891C6.98599 8.00875 8.00717 6.9873 9.26699 6.9873Z" fill="white"/>
<defs>
<radialGradient id="paint0_radial_387_261" cx="0" cy="0" r="1" gradientUnits="userSpaceOnUse" gradientTransform="translate(4.92379 19.9642) rotate(-90) scale(18.3711 17.0865)">
<stop stop-color="#FFDD55"/>
<stop offset="0.1" stop-color="#FFDD55"/>
<stop offset="0.5" stop-color="#FF543E"/>
<stop offset="1" stop-color="#C837AB"/>
</radialGradient>
<radialGradient id="paint1_radial_387_261" cx="0" cy="0" r="1" gradientUnits="userSpaceOnUse" gradientTransform="translate(-3.10497 1.33534) rotate(78.6806) scale(8.21195 33.85)">
<stop stop-color="#3771C8"/>
<stop offset="0.128" stop-color="#3771C8"/>
<stop offset="1" stop-color="#6600FF" stop-opacity="0"/>
</radialGradient>
</defs>
</svg>
