<svg width="19" height="19" viewBox="0 0 19 19" fill="none" xmlns="http://www.w3.org/2000/svg">
<path d="M9.34127 18.5365C14.46 18.5365 18.6095 14.387 18.6095 9.26827C18.6095 4.14955 14.46 0 9.34127 0C4.22254 0 0.072998 4.14955 0.072998 9.26827C0.072998 14.387 4.22254 18.5365 9.34127 18.5365Z" fill="url(#paint0_linear_387_268)"/>
<path d="M3.93034 9.18763L10.1717 6.61609C10.7878 6.34822 12.8772 5.49104 12.8772 5.49104C12.8772 5.49104 13.8415 5.11602 13.7611 6.02678C13.7343 6.40179 13.5201 7.71435 13.3058 9.13406L12.6361 13.3396C12.6361 13.3396 12.5825 13.9557 12.1271 14.0628C11.6718 14.17 10.9217 13.6878 10.7878 13.5807C10.6806 13.5003 8.77877 12.2949 8.08231 11.7056C7.8948 11.5449 7.68051 11.2234 8.1091 10.8484C9.07342 9.96445 10.2253 8.86619 10.9217 8.16973C11.2432 7.84828 11.5646 7.09825 10.2253 8.00901L6.44831 10.5538C6.44831 10.5538 6.01972 10.8216 5.21611 10.5805C4.4125 10.3395 3.47496 10.018 3.47496 10.018C3.47496 10.018 2.83208 9.61622 3.93034 9.18763Z" fill="white"/>
<defs>
<linearGradient id="paint0_linear_387_268" x1="12.4314" y1="3.09014" x2="7.79727" y2="13.9024" gradientUnits="userSpaceOnUse">
<stop stop-color="#37AEE2"/>
<stop offset="1" stop-color="#1E96C8"/>
</linearGradient>
</defs>
</svg>
