<svg width="20" height="19" viewBox="0 0 20 19" fill="none" xmlns="http://www.w3.org/2000/svg">
<path d="M3.38586 4.38672H16.5464V14.2571H3.38586V4.38672Z" fill="white"/>
<path fill-rule="evenodd" clip-rule="evenodd" d="M12.647 0C17.8373 0 19.073 1.23577 19.073 6.426V12.1105C19.073 17.3008 17.8373 18.5365 12.647 18.5365H6.9625C1.77227 18.5365 0.536499 17.3008 0.536499 12.1105V6.426C0.536499 1.23577 1.77227 0 6.9625 0H12.647ZM5.55681 5.79267H4.20519C3.81901 5.79267 3.74178 5.97803 3.74178 6.17112C3.74178 6.53413 4.19747 8.31055 5.87348 10.6585C6.31687 11.367 6.92179 11.9603 7.63868 12.3899C8.35557 12.8195 9.16404 13.0731 9.99786 13.13C10.8552 13.13 10.9633 12.937 10.9633 12.6048V11.3922C10.9633 11.0061 11.0483 10.9288 11.3186 10.9288C11.5889 10.9288 11.8592 11.0292 12.6625 11.8016C13.5816 12.7207 13.7283 13.13 14.2458 13.13H15.5974C15.9836 13.13 16.1767 12.937 16.0686 12.5585C15.7808 11.9693 15.3942 11.4338 14.9255 10.9752C14.6088 10.5967 14.1531 10.2028 13.9909 10.002C13.8287 9.8012 13.8519 9.62355 13.9909 9.39957C14.7067 8.43751 15.3177 7.40184 15.8137 6.31015C15.8987 6.02438 15.8137 5.81584 15.4043 5.81584H14.0527C13.9275 5.80895 13.8033 5.84185 13.6978 5.90982C13.5924 5.9778 13.5112 6.07737 13.4657 6.19429C13.0469 7.19044 12.4877 8.12155 11.8052 8.95933C11.4885 9.27599 11.3418 9.3764 11.1718 9.3764C11.0019 9.3764 10.9633 9.27599 10.9633 8.99022V6.28698C10.9633 5.94714 10.8629 5.79267 10.5771 5.79267H8.45315C8.3663 5.78842 8.28126 5.8184 8.21627 5.87616C8.15129 5.93392 8.11155 6.01487 8.10559 6.10161C8.10559 6.426 8.59989 6.50324 8.64624 7.42234V9.40729C8.64624 9.84754 8.569 9.92477 8.39908 9.92477C7.93567 9.92477 6.85437 8.24104 6.15925 6.31787C6.03567 5.94714 5.94299 5.79267 5.55681 5.79267Z" fill="#4872A3"/>
</svg>
