<svg width="1440" height="1198" viewBox="0 0 1440 1198" fill="none" xmlns="http://www.w3.org/2000/svg">
<path fill-rule="evenodd" clip-rule="evenodd" d="M-435.989 371.479C-412.364 311.87 -345.508 283.828 -303.229 235.621C-252.011 177.223 -237.04 55.37 -159.346 56.0517C-70.798 56.8287 -44.1619 188.808 29.1137 238.537C72.1492 267.743 126.35 269.612 176.364 283.882C252.71 305.664 385.797 267.92 403.39 345.321C423.655 434.477 281.178 479.503 239.298 560.762C219.073 600.004 221.179 646.845 225.332 690.801C234.201 784.66 313.331 877.981 277.512 965.178C247.909 1037.24 147.211 1081.76 70.5973 1067.48C-15.7184 1051.39 -36.0196 915.054 -120.459 890.981C-198.205 868.817 -277.977 975.812 -353.364 946.614C-421.072 920.39 -445.19 830.767 -459.617 759.623C-473.143 692.924 -435.907 627.89 -431.772 559.965C-427.905 496.442 -459.435 430.639 -435.989 371.479Z" fill="#394263" fill-opacity="0.1"/>
<path fill-rule="evenodd" clip-rule="evenodd" d="M1863.42 283.514C1918.12 305.965 1943.22 367.923 1987.2 407.448C2040.46 455.328 2152.65 470.501 2151.15 542.129C2149.44 623.764 2027.45 646.841 1980.77 713.845C1953.36 753.197 1951.03 803.151 1937.31 849.105C1916.37 919.254 1949.68 1042.39 1878.11 1057.74C1795.68 1075.42 1755.77 943.55 1681.31 904.023C1645.36 884.934 1602.14 886.35 1561.57 889.685C1474.93 896.809 1387.99 968.721 1308 934.715C1241.89 906.611 1201.97 813.264 1216 742.784C1231.8 663.379 1357.74 646.192 1380.88 568.607C1402.19 497.171 1304.43 422.418 1332.2 353.236C1357.14 291.102 1440.05 269.871 1505.81 257.368C1567.46 245.646 1627 280.709 1689.58 285.284C1748.11 289.563 1809.14 261.231 1863.42 283.514Z" fill="#394263" fill-opacity="0.1"/>
</svg>
