<svg width="1440" height="1045" viewBox="0 0 1440 1045" fill="none" xmlns="http://www.w3.org/2000/svg">
<path fill-rule="evenodd" clip-rule="evenodd" d="M-469.473 310.481C-449.728 260.66 -393.85 237.223 -358.512 196.931C-315.705 148.123 -303.192 46.278 -238.255 46.8478C-164.247 47.4972 -141.985 157.805 -80.7415 199.368C-44.7725 223.779 0.528354 225.341 42.3301 237.268C106.14 255.473 217.373 223.927 232.078 288.618C249.015 363.135 129.933 400.767 94.9301 468.683C78.0261 501.482 79.7863 540.632 83.2577 577.37C90.6702 655.817 156.807 733.815 126.869 806.694C102.127 866.924 17.9641 904.136 -46.0696 892.198C-118.212 878.747 -135.18 764.8 -205.754 744.68C-270.734 726.155 -337.407 815.582 -400.416 791.178C-457.006 769.26 -477.164 694.353 -489.222 634.891C-500.526 579.144 -469.405 524.789 -465.949 468.017C-462.717 414.925 -489.069 359.927 -469.473 310.481Z" fill="#394263" fill-opacity="0.1"/>
<path fill-rule="evenodd" clip-rule="evenodd" d="M1811.95 239.882C1860.13 259.661 1882.25 314.244 1920.99 349.064C1967.92 391.244 2066.75 404.61 2065.42 467.712C2063.92 539.629 1956.45 559.959 1915.33 618.987C1891.18 653.654 1889.13 697.662 1877.04 738.146C1858.59 799.944 1887.93 908.42 1824.89 921.944C1752.27 937.523 1717.11 821.347 1651.52 786.525C1619.84 769.709 1581.77 770.956 1546.03 773.895C1469.7 780.17 1393.12 843.522 1322.64 813.564C1264.4 788.806 1229.23 706.571 1241.59 644.481C1255.52 574.529 1366.46 559.388 1386.85 491.038C1405.62 428.106 1319.5 362.252 1343.96 301.305C1365.93 246.567 1438.97 227.864 1496.9 216.849C1551.21 206.523 1603.67 237.412 1658.8 241.442C1710.36 245.212 1764.13 220.252 1811.95 239.882Z" fill="#394263" fill-opacity="0.1"/>
</svg>
