<svg width="30" height="30" viewBox="0 0 30 30" fill="none" xmlns="http://www.w3.org/2000/svg">
<path d="M16.7624 15.0002L22.1374 9.63773C22.3728 9.40235 22.505 9.08311 22.505 8.75023C22.505 8.41735 22.3728 8.09811 22.1374 7.86273C21.902 7.62735 21.5828 7.49512 21.2499 7.49512C20.917 7.49512 20.5978 7.62735 20.3624 7.86273L14.9999 13.2377L9.63742 7.86273C9.40204 7.62735 9.0828 7.49512 8.74992 7.49512C8.41705 7.49512 8.0978 7.62735 7.86242 7.86273C7.62704 8.09811 7.49481 8.41735 7.49481 8.75023C7.49481 9.08311 7.62704 9.40235 7.86242 9.63773L13.2374 15.0002L7.86242 20.3627C7.74526 20.4789 7.65227 20.6172 7.58881 20.7695C7.52535 20.9218 7.49268 21.0852 7.49268 21.2502C7.49268 21.4152 7.52535 21.5786 7.58881 21.731C7.65227 21.8833 7.74526 22.0215 7.86242 22.1377C7.97863 22.2549 8.11688 22.3479 8.2692 22.4113C8.42153 22.4748 8.58491 22.5075 8.74992 22.5075C8.91494 22.5075 9.07832 22.4748 9.23064 22.4113C9.38297 22.3479 9.52122 22.2549 9.63742 22.1377L14.9999 16.7627L20.3624 22.1377C20.4786 22.2549 20.6169 22.3479 20.7692 22.4113C20.9215 22.4748 21.0849 22.5075 21.2499 22.5075C21.4149 22.5075 21.5783 22.4748 21.7306 22.4113C21.883 22.3479 22.0212 22.2549 22.1374 22.1377C22.2546 22.0215 22.3476 21.8833 22.411 21.731C22.4745 21.5786 22.5072 21.4152 22.5072 21.2502C22.5072 21.0852 22.4745 20.9218 22.411 20.7695C22.3476 20.6172 22.2546 20.4789 22.1374 20.3627L16.7624 15.0002Z" fill="black"/>
</svg>
