<svg width="48" height="48" viewBox="0 0 48 48" fill="none" xmlns="http://www.w3.org/2000/svg">
<path d="M21 21C20.8022 21 20.6089 21.0586 20.4444 21.1685C20.28 21.2784 20.1518 21.4346 20.0761 21.6173C20.0004 21.8 19.9806 22.0011 20.0192 22.1951C20.0578 22.3891 20.153 22.5673 20.2929 22.7071C20.4328 22.847 20.6109 22.9422 20.8049 22.9808C20.9989 23.0194 21.2 22.9996 21.3827 22.9239C21.5654 22.8482 21.7216 22.72 21.8315 22.5556C21.9414 22.3911 22 22.1978 22 22C22 21.7348 21.8946 21.4804 21.7071 21.2929C21.5196 21.1054 21.2652 21 21 21ZM26.66 25.56L22.47 27.06C22.2498 27.1399 22.0646 27.2945 21.9468 27.497C21.8289 27.6994 21.7859 27.9368 21.8252 28.1678C21.8645 28.3987 21.9836 28.6085 22.1617 28.7606C22.3399 28.9127 22.5658 28.9974 22.8 29C22.916 28.9999 23.031 28.9796 23.14 28.94L27.34 27.44C27.467 27.3981 27.5842 27.3312 27.6849 27.2431C27.7855 27.1551 27.8675 27.0478 27.926 26.9276C27.9844 26.8073 28.0182 26.6766 28.0252 26.5431C28.0323 26.4095 28.0125 26.276 27.967 26.1502C27.9215 26.0245 27.8513 25.9092 27.7604 25.8111C27.6696 25.7129 27.56 25.634 27.4382 25.579C27.3163 25.524 27.1847 25.4939 27.051 25.4907C26.9174 25.4874 26.7844 25.511 26.66 25.56ZM27 21C26.8022 21 26.6089 21.0586 26.4444 21.1685C26.28 21.2784 26.1518 21.4346 26.0761 21.6173C26.0004 21.8 25.9806 22.0011 26.0192 22.1951C26.0578 22.3891 26.153 22.5673 26.2929 22.7071C26.4328 22.847 26.6109 22.9422 26.8049 22.9808C26.9989 23.0194 27.2 22.9996 27.3827 22.9239C27.5654 22.8482 27.7216 22.72 27.8315 22.5556C27.9414 22.3911 28 22.1978 28 22C28 21.7348 27.8946 21.4804 27.7071 21.2929C27.5196 21.1054 27.2652 21 27 21ZM24 14C22.0222 14 20.0888 14.5865 18.4443 15.6853C16.7998 16.7841 15.5181 18.3459 14.7612 20.1732C14.0043 22.0004 13.8063 24.0111 14.1922 25.9509C14.578 27.8907 15.5304 29.6725 16.9289 31.0711C18.3275 32.4696 20.1093 33.422 22.0491 33.8079C23.9889 34.1937 25.9996 33.9957 27.8268 33.2388C29.6541 32.4819 31.2159 31.2002 32.3147 29.5557C33.4135 27.9112 34 25.9778 34 24C34 22.6868 33.7413 21.3864 33.2388 20.1732C32.7363 18.9599 31.9997 17.8575 31.0711 16.9289C30.1425 16.0003 29.0401 15.2638 27.8268 14.7612C26.6136 14.2587 25.3132 14 24 14ZM24 32C22.4178 32 20.871 31.5308 19.5554 30.6518C18.2398 29.7727 17.2145 28.5233 16.609 27.0615C16.0035 25.5997 15.845 23.9911 16.1537 22.4393C16.4624 20.8874 17.2243 19.462 18.3432 18.3431C19.462 17.2243 20.8874 16.4624 22.4393 16.1537C23.9911 15.845 25.5997 16.0035 27.0615 16.609C28.5233 17.2145 29.7727 18.2398 30.6518 19.5554C31.5308 20.871 32 22.4177 32 24C32 26.1217 31.1572 28.1566 29.6569 29.6569C28.1566 31.1571 26.1217 32 24 32Z" fill="#FFB078"/>
<circle cx="24" cy="24" r="22.5" stroke="url(#paint0_linear_315_462)" stroke-width="3"/>
<defs>
<linearGradient id="paint0_linear_315_462" x1="42" y1="36.5" x2="3.5" y2="12.5" gradientUnits="userSpaceOnUse">
<stop stop-color="#FFB078"/>
<stop offset="1" stop-color="#F2F2F2"/>
</linearGradient>
</defs>
</svg>
