<svg width="43" height="43" viewBox="0 0 43 43" fill="none" xmlns="http://www.w3.org/2000/svg">
<rect x="2" y="2" width="39" height="39" rx="8" stroke="#766881" stroke-width="4"/>
<path d="M30.9698 16.8563C31.7189 16.0445 31.6681 14.7792 30.8563 14.0302C30.0445 13.2811 28.7792 13.3319 28.0302 14.1437L30.9698 16.8563ZM15.3809 19.5532C14.5819 18.7906 13.3159 18.8201 12.5532 19.6191C11.7906 20.4181 11.8201 21.6841 12.6191 22.4468L15.3809 19.5532ZM19.5428 26.2905L18.1619 27.7373C18.5499 28.1076 19.0703 28.3065 19.6063 28.2895C20.1423 28.2725 20.649 28.041 21.0127 27.6468L19.5428 26.2905ZM28.0302 14.1437L18.073 24.9342L21.0127 27.6468L30.9698 16.8563L28.0302 14.1437ZM20.9237 24.8438L15.3809 19.5532L12.6191 22.4468L18.1619 27.7373L20.9237 24.8438Z" fill="#766881"/>
</svg>
