<svg width="48" height="48" viewBox="0 0 48 48" fill="none" xmlns="http://www.w3.org/2000/svg">
<circle cx="24" cy="24" r="22.5" stroke="url(#paint0_linear_315_488)" stroke-width="3"/>
<path d="M26.36 26.23C25.6915 26.769 24.8587 27.0629 24 27.0629C23.1413 27.0629 22.3085 26.769 21.64 26.23C21.4358 26.0603 21.1725 25.9786 20.9081 26.003C20.6437 26.0274 20.3997 26.1558 20.23 26.36C20.0603 26.5642 19.9786 26.8275 20.003 27.0919C20.0274 27.3563 20.1558 27.6003 20.36 27.77C21.3813 28.6226 22.6696 29.0896 24 29.0896C25.3304 29.0896 26.6187 28.6226 27.64 27.77C27.8442 27.6003 27.9726 27.3563 27.997 27.0919C28.0214 26.8275 27.9397 26.5642 27.77 26.36C27.686 26.2589 27.5828 26.1753 27.4665 26.1141C27.3501 26.0528 27.2229 26.0151 27.0919 26.003C26.8275 25.9786 26.5642 26.0603 26.36 26.23ZM21.21 22.54C21.3974 22.7263 21.6508 22.8308 21.915 22.8308C22.1792 22.8308 22.4326 22.7263 22.62 22.54C22.8063 22.3526 22.9108 22.0992 22.9108 21.835C22.9108 21.5708 22.8063 21.3174 22.62 21.13C22.0477 20.587 21.2889 20.2843 20.5 20.2843C19.7111 20.2843 18.9523 20.587 18.38 21.13C18.2753 21.2196 18.1903 21.33 18.1303 21.454C18.0703 21.5781 18.0365 21.7132 18.0312 21.8509C18.0259 21.9887 18.0491 22.126 18.0994 22.2543C18.1496 22.3826 18.2259 22.4992 18.3234 22.5967C18.4208 22.6941 18.5374 22.7704 18.6657 22.8206C18.794 22.8709 18.9313 22.8941 19.0691 22.8888C19.2068 22.8835 19.3419 22.8497 19.466 22.7897C19.59 22.7297 19.7004 22.6447 19.79 22.54C19.883 22.4463 19.9936 22.3719 20.1154 22.3211C20.2373 22.2703 20.368 22.2442 20.5 22.2442C20.632 22.2442 20.7627 22.2703 20.8846 22.3211C21.0064 22.3719 21.117 22.4463 21.21 22.54ZM29.62 21.13C29.0477 20.587 28.2889 20.2843 27.5 20.2843C26.7111 20.2843 25.9523 20.587 25.38 21.13C25.2162 21.3213 25.1306 21.5674 25.1403 21.8191C25.15 22.0707 25.2543 22.3095 25.4324 22.4876C25.6105 22.6657 25.8493 22.77 26.101 22.7797C26.3526 22.7894 26.5987 22.7038 26.79 22.54C26.883 22.4463 26.9936 22.3719 27.1154 22.3211C27.2373 22.2703 27.368 22.2442 27.5 22.2442C27.632 22.2442 27.7627 22.2703 27.8846 22.3211C28.0064 22.3719 28.117 22.4463 28.21 22.54C28.3974 22.7263 28.6508 22.8308 28.915 22.8308C29.1792 22.8308 29.4326 22.7263 29.62 22.54C29.8063 22.3526 29.9108 22.0992 29.9108 21.835C29.9108 21.5708 29.8063 21.3174 29.62 21.13ZM24 14C22.0222 14 20.0888 14.5865 18.4443 15.6853C16.7998 16.7841 15.5181 18.3459 14.7612 20.1732C14.0043 22.0004 13.8063 24.0111 14.1922 25.9509C14.578 27.8907 15.5304 29.6725 16.9289 31.0711C18.3275 32.4696 20.1093 33.422 22.0491 33.8079C23.9889 34.1937 25.9996 33.9957 27.8268 33.2388C29.6541 32.4819 31.2159 31.2002 32.3147 29.5557C33.4135 27.9112 34 25.9778 34 24C34 22.6868 33.7413 21.3864 33.2388 20.1732C32.7363 18.9599 31.9997 17.8575 31.0711 16.9289C30.1425 16.0003 29.0401 15.2638 27.8268 14.7612C26.6136 14.2587 25.3132 14 24 14ZM24 32C22.4178 32 20.871 31.5308 19.5554 30.6518C18.2398 29.7727 17.2145 28.5233 16.609 27.0615C16.0035 25.5997 15.845 23.9911 16.1537 22.4393C16.4624 20.8874 17.2243 19.462 18.3432 18.3431C19.462 17.2243 20.8874 16.4624 22.4393 16.1537C23.9911 15.845 25.5997 16.0035 27.0615 16.609C28.5233 17.2145 29.7727 18.2398 30.6518 19.5554C31.5308 20.871 32 22.4177 32 24C32 26.1217 31.1572 28.1566 29.6569 29.6569C28.1566 31.1571 26.1217 32 24 32Z" fill="#FFB078"/>
<defs>
<linearGradient id="paint0_linear_315_488" x1="42" y1="36.5" x2="3.5" y2="12.5" gradientUnits="userSpaceOnUse">
<stop stop-color="#FFB078"/>
<stop offset="1" stop-color="#F2F2F2"/>
</linearGradient>
</defs>
</svg>
