<svg width="2380" height="694" viewBox="0 0 2380 694" fill="none" xmlns="http://www.w3.org/2000/svg">
<path d="M901 401V137H973.48C992.253 137 1009.69 140.36 1025.8 147.08C1041.91 153.8 1055.99 163.187 1068.04 175.24C1080.2 187.293 1089.64 201.32 1096.36 217.32C1103.19 233.32 1106.6 250.6 1106.6 269.16C1106.6 287.827 1103.24 305.16 1096.52 321.16C1089.8 337.053 1080.36 351.027 1068.2 363.08C1056.15 375.027 1042.01 384.36 1025.8 391.08C1009.69 397.693 992.253 401 973.48 401H901ZM952.84 354.6H967.72C979.667 354.6 990.707 352.467 1000.84 348.2C1010.97 343.933 1019.77 337.96 1027.24 330.28C1034.71 322.6 1040.52 313.587 1044.68 303.24C1048.84 292.787 1050.92 281.373 1050.92 269C1050.92 256.733 1048.84 245.427 1044.68 235.08C1040.52 224.627 1034.71 215.56 1027.24 207.88C1019.77 200.093 1010.97 194.067 1000.84 189.8C990.707 185.533 979.667 183.4 967.72 183.4H952.84V354.6ZM1761.48 401L1867.56 137H1915.72L2021.64 401H1965.8L1943.4 340.84H1839.72L1817.32 401H1761.48ZM1857.48 295.4H1925.8L1891.56 206.92L1857.48 295.4Z" fill="#2B3042"/>
<path d="M1230.49 406.12C1212.79 406.12 1196.89 402.333 1182.81 394.76C1168.84 387.08 1157.75 376.68 1149.53 363.56C1141.32 350.44 1137.21 335.613 1137.21 319.08C1137.21 306.92 1139.51 295.56 1144.09 285C1148.79 274.44 1155.29 265.213 1163.61 257.32C1171.93 249.32 1181.59 243.133 1192.57 238.76C1203.56 234.28 1215.45 232.04 1228.25 232.04C1245.32 232.04 1260.25 235.613 1273.05 242.76C1285.96 249.8 1295.99 259.613 1303.13 272.2C1310.39 284.787 1314.01 299.453 1314.01 316.2C1314.01 317.587 1313.96 318.813 1313.85 319.88C1313.85 320.84 1313.69 322.707 1313.37 325.48H1187.77C1187.77 333.8 1189.64 341.053 1193.37 347.24C1197.21 353.427 1202.55 358.28 1209.37 361.8C1216.2 365.213 1224.15 366.92 1233.21 366.92C1241.75 366.92 1249.27 365.267 1255.77 361.96C1262.39 358.653 1268.73 353.373 1274.81 346.12L1310.17 363.88C1302.49 377.107 1291.61 387.453 1277.53 394.92C1263.45 402.387 1247.77 406.12 1230.49 406.12ZM1189.53 298.28H1265.69C1264.63 291.987 1262.33 286.547 1258.81 281.96C1255.4 277.373 1251.03 273.853 1245.69 271.4C1240.36 268.947 1234.33 267.72 1227.61 267.72C1220.47 267.72 1214.17 268.947 1208.73 271.4C1203.29 273.853 1198.92 277.373 1195.61 281.96C1192.31 286.547 1190.28 291.987 1189.53 298.28ZM1357.71 401V237.16H1406.83V255.4C1413.12 248.36 1420.96 242.707 1430.35 238.44C1439.84 234.173 1450.3 232.04 1461.71 232.04C1474.3 232.04 1485.34 234.813 1494.83 240.36C1504.43 245.8 1511.95 253.427 1517.39 263.24C1522.83 272.947 1525.55 284.307 1525.55 297.32V401H1476.43V307.72C1476.43 295.987 1473.34 286.867 1467.15 280.36C1461.07 273.747 1452.7 270.44 1442.03 270.44C1434.78 270.44 1428.48 271.933 1423.15 274.92C1417.92 277.8 1413.87 281.8 1410.99 286.92C1408.22 291.933 1406.83 297.64 1406.83 304.04V401H1357.71ZM1580.21 401V125.8H1629.33V297L1689.81 237.16H1753.49L1673.33 317.48L1757.17 401H1694.13L1629.33 336.2V401H1580.21ZM2053.65 401V237.16H2102.77V260.68C2108.85 251.507 2116.26 244.467 2125.01 239.56C2133.86 234.547 2143.35 232.04 2153.49 232.04C2159.25 232.04 2165.22 232.893 2171.41 234.6C2177.59 236.307 2182.77 238.493 2186.93 241.16L2166.45 282.6C2162.82 280.147 2158.55 278.227 2153.65 276.84C2148.85 275.347 2144.37 274.6 2140.21 274.6C2133.81 274.6 2127.73 276.253 2121.97 279.56C2116.21 282.867 2111.57 287.187 2108.05 292.52C2104.53 297.747 2102.77 303.4 2102.77 309.48V401H2053.65ZM2270.75 406.12C2254.43 406.12 2241.74 400.947 2232.67 390.6C2223.61 380.147 2219.07 365.587 2219.07 346.92V274.44H2197.15V237.16H2219.07V175.72H2268.19V237.16H2304.19V274.44H2268.19V343.4C2268.19 349.587 2269.42 354.28 2271.87 357.48C2274.43 360.68 2278.01 362.28 2282.59 362.28C2287.71 362.28 2292.62 360.573 2297.31 357.16L2309.63 396.52C2304.09 399.507 2297.85 401.853 2290.91 403.56C2284.09 405.267 2277.37 406.12 2270.75 406.12Z" fill="#394263"/>
<path d="M1055.35 558.35C1047.95 558.35 1042.35 555.9 1038.55 551C1034.85 546 1033 539.15 1033 530.45C1033 520.25 1035.15 509.35 1039.45 497.75C1043.75 486.05 1049.45 476.05 1056.55 467.75C1063.65 459.45 1070.6 455.3 1077.4 455.3C1083.6 455.3 1089 458.8 1093.6 465.8C1096.3 469.5 1097.65 474.5 1097.65 480.8C1097.65 487 1096.4 494.15 1093.9 502.25C1091.4 510.65 1089.1 517.45 1087 522.65C1084.9 528.15 1084 531.15 1084.3 531.65C1085 532.35 1085.35 533.25 1085.35 534.35C1085.35 537.45 1081.3 542.25 1073.2 548.75C1065.3 555.15 1059.35 558.35 1055.35 558.35ZM1053.4 550.4C1058.4 550.4 1063.7 546.05 1069.3 537.35C1075 528.35 1079.55 518.15 1082.95 506.75C1086.45 494.85 1088.2 484.5 1088.2 475.7C1088.2 468.4 1085.75 464.75 1080.85 464.75C1076.45 464.75 1070.4 468.6 1062.7 476.3C1049.4 496.2 1042.75 514.3 1042.75 530.6C1042.75 536.2 1043.6 540.85 1045.3 544.55C1047.1 548.15 1049.3 550.05 1051.9 550.25C1052.1 550.35 1052.6 550.4 1053.4 550.4ZM1110.74 552.05C1109.54 552.05 1108.54 551.85 1107.74 551.45C1100.84 549.05 1097.39 544.15 1097.39 536.75C1097.39 531.25 1099.04 525.35 1102.34 519.05C1103.34 517.05 1104.44 515.05 1105.64 513.05C1106.74 511.15 1108.59 508.75 1111.19 505.85C1113.49 503.25 1115.49 501.95 1117.19 501.95C1118.29 501.95 1119.19 502.45 1119.89 503.45C1119.59 502.75 1118.99 501.95 1118.09 501.05C1117.29 500.15 1116.49 499.4 1115.69 498.8C1114.99 498.1 1114.04 497.3 1112.84 496.4C1111.74 495.4 1111.04 494.75 1110.74 494.45C1107.14 491.05 1105.34 487.35 1105.34 483.35C1105.34 480.75 1105.99 478.2 1107.29 475.7C1109.69 470.2 1114.84 463.95 1122.74 456.95C1123.44 456.25 1124.59 456.75 1126.19 458.45C1127.79 460.05 1128.59 461.55 1128.59 462.95C1128.59 463.45 1128.44 463.85 1128.14 464.15C1124.94 467.65 1122.09 471.25 1119.59 474.95C1116.49 478.95 1114.94 482.45 1114.94 485.45C1114.94 488.15 1116.14 490.6 1118.54 492.8C1122.34 496.3 1125.24 499.35 1127.24 501.95C1129.24 504.45 1130.94 507.5 1132.34 511.1C1133.34 513.4 1133.84 515.75 1133.84 518.15C1133.84 520.55 1133.34 522.95 1132.34 525.35C1131.64 527.05 1131.14 528.1 1130.84 528.5C1130.64 529 1130.24 529.75 1129.64 530.75C1129.04 531.75 1128.39 532.85 1127.69 534.05C1127.09 535.15 1126.74 535.8 1126.64 536C1121.04 546.7 1115.74 552.05 1110.74 552.05ZM1111.04 539.15L1112.84 536.75C1115.24 533.65 1117.19 530.9 1118.69 528.5C1122.69 522.6 1124.69 518 1124.69 514.7C1124.69 513.1 1124.24 511.95 1123.34 511.25C1122.14 510.15 1120.44 511.1 1118.24 514.1C1116.04 517 1113.29 521.8 1109.99 528.5C1108.29 532.7 1107.44 536.35 1107.44 539.45C1107.44 542.25 1108.64 542.15 1111.04 539.15ZM1135.46 609.05C1136.26 610.15 1135.76 610.8 1133.96 611C1130.96 611.4 1128.26 610.25 1125.86 607.55C1124.66 605.95 1123.86 604.35 1123.46 602.75C1122.46 599.05 1123.11 592.65 1125.41 583.55C1125.41 583.45 1125.46 583.2 1125.56 582.8C1125.56 582.5 1125.61 582.3 1125.71 582.2C1129.11 568.6 1134.26 552.6 1141.16 534.2C1144.46 525.1 1148.01 516.05 1151.81 507.05C1155.01 499.45 1157.36 495.3 1158.86 494.6C1159.96 494.2 1162.06 494.35 1165.16 495.05C1167.56 495.65 1167.91 497.75 1166.21 501.35C1164.21 505.05 1160.16 513.8 1154.06 527.6C1157.06 523.5 1159.61 520.4 1161.71 518.3C1167.81 511.6 1172.86 507.55 1176.86 506.15C1177.76 505.75 1178.96 505.55 1180.46 505.55C1183.76 505.55 1186.56 507.15 1188.86 510.35C1191.06 513.35 1191.91 516.8 1191.41 520.7C1191.31 523.2 1190.06 526.9 1187.66 531.8C1185.36 536.4 1182.21 540.75 1178.21 544.85C1174.21 548.85 1170.11 550.85 1165.91 550.85C1162.31 550.85 1159.71 549.3 1158.11 546.2C1157.11 544.3 1157.16 543.2 1158.26 542.9C1158.46 542.7 1158.71 542.7 1159.01 542.9C1161.81 543.5 1164.71 542.95 1167.71 541.25C1170.71 539.45 1173.11 537.1 1174.91 534.2C1179.91 526.1 1182.36 519.8 1182.26 515.3C1182.26 513.8 1181.91 513.05 1181.21 513.05C1179.31 513.05 1176.06 515.05 1171.46 519.05C1164.66 525.05 1158.56 532.2 1153.16 540.5C1147.86 548.8 1143.91 557.15 1141.31 565.55C1137.11 579.15 1134.66 588.25 1133.96 592.85C1132.66 599.75 1133.16 605.15 1135.46 609.05ZM1242.32 554.15C1237.92 554.65 1234.17 553.35 1231.07 550.25C1228.07 547.05 1226.37 542.65 1225.97 537.05C1217.37 546.45 1209.97 550.9 1203.77 550.4C1199.87 550 1197.27 548.5 1195.97 545.9C1194.57 543.2 1194.37 540.05 1195.37 536.45C1196.37 532.75 1197.97 528.9 1200.17 524.9C1202.47 520.9 1205.17 517.2 1208.27 513.8C1210.67 511.1 1213.32 508.85 1216.22 507.05C1219.12 505.25 1222.17 504.15 1225.37 503.75C1228.57 503.25 1231.52 503.95 1234.22 505.85C1235.52 503.95 1237.87 503.95 1241.27 505.85C1244.47 507.45 1245.57 509.3 1244.57 511.4C1241.97 516.1 1239.77 521.15 1237.97 526.55C1235.97 532.35 1234.97 537.15 1234.97 540.95C1234.97 542.85 1235.37 544.3 1236.17 545.3C1236.97 546.2 1238.22 546.6 1239.92 546.5C1240.62 546.5 1241.47 546.4 1242.47 546.2C1243.47 545.9 1244.47 545.5 1245.47 545C1246.47 544.5 1247.52 543.95 1248.62 543.35C1249.72 542.75 1250.72 542.15 1251.62 541.55C1252.62 540.85 1253.57 540.2 1254.47 539.6C1255.47 539 1256.27 538.45 1256.87 537.95C1257.57 537.45 1258.12 537 1258.52 536.6L1259.27 536.15C1259.97 535.55 1260.32 535.55 1260.32 536.15C1260.22 537.85 1258.37 540.95 1254.77 545.45C1250.37 550.85 1246.22 553.75 1242.32 554.15ZM1204.37 540.35C1204.17 541.15 1204.12 541.75 1204.22 542.15C1204.42 542.45 1204.82 542.5 1205.42 542.3C1208.32 541.4 1212.92 537.5 1219.22 530.6C1226.12 522.9 1229.57 517.4 1229.57 514.1C1228.37 512.6 1226.12 513.05 1222.82 515.45C1219.52 517.75 1216.07 521.3 1212.47 526.1C1208.87 530.8 1206.17 535.55 1204.37 540.35ZM1255.96 594.05C1252.96 592.55 1250.91 590.8 1249.81 588.8C1248.61 586.9 1248.11 585 1248.31 583.1C1248.51 581.3 1249.16 579.25 1250.26 576.95C1250.96 575.25 1252.36 573.2 1254.46 570.8C1258.76 566.3 1262.11 563.05 1264.51 561.05C1267.51 558.35 1272.81 554.75 1280.41 550.25C1282.21 549.15 1286.51 546.7 1293.31 542.9C1292.31 540.1 1290.31 538.55 1287.31 538.25C1282.61 537.65 1277.71 538.95 1272.61 542.15L1268.56 545.45C1266.16 547.45 1264.46 548.5 1263.46 548.6C1261.76 548.9 1260.01 548.05 1258.21 546.05C1256.51 544.05 1255.91 542.15 1256.41 540.35C1256.61 539.45 1257.06 538.7 1257.76 538.1C1258.56 537.5 1259.61 536.95 1260.91 536.45C1262.21 535.95 1263.01 535.6 1263.31 535.4C1265.21 534.2 1268.51 531.45 1273.21 527.15C1275.51 525.05 1278.36 521.8 1281.76 517.4C1285.06 513.2 1286.06 510.6 1284.76 509.6C1284.06 509 1282.46 509.35 1279.96 510.65C1277.76 511.75 1275.91 512.8 1274.41 513.8C1273.71 514.2 1272.46 515.25 1270.66 516.95C1268.96 518.65 1267.81 519.7 1267.21 520.1C1264.21 522.2 1261.66 521.95 1259.56 519.35C1258.36 518.05 1257.86 516.75 1258.06 515.45C1258.36 514.15 1258.81 513.15 1259.41 512.45C1260.01 511.75 1261.01 510.85 1262.41 509.75C1270.91 503.05 1278.26 500 1284.46 500.6C1288.36 500.9 1291.41 502.85 1293.61 506.45C1296.41 510.85 1293.16 518.55 1283.86 529.55C1292.96 530.55 1298.61 534.05 1300.81 540.05C1301.61 539.65 1302.96 539.25 1304.86 538.85C1306.86 538.35 1308.96 538 1311.16 537.8C1313.46 537.6 1315.36 537.85 1316.86 538.55C1318.46 539.25 1319.16 540.4 1318.96 542C1318.96 542.3 1318.61 542.6 1317.91 542.9C1317.21 543.1 1316.06 543.4 1314.46 543.8C1312.86 544.2 1311.46 544.65 1310.26 545.15C1305.26 547.25 1302.36 548.55 1301.56 549.05C1300.66 554.55 1300.01 557.85 1299.61 558.95C1296.81 567.45 1292.21 574.65 1285.81 580.55C1285.71 580.65 1285.16 581.1 1284.16 581.9C1283.16 582.7 1282.46 583.3 1282.06 583.7C1281.06 584.6 1280.11 585.55 1279.21 586.55C1278.31 587.45 1277.41 587.5 1276.51 586.7C1276.41 586.7 1276.16 586.95 1275.76 587.45C1275.36 587.95 1274.96 588.5 1274.56 589.1C1274.16 589.7 1273.86 590.1 1273.66 590.3C1271.46 592.1 1268.66 593.35 1265.26 594.05C1261.86 594.85 1258.76 594.85 1255.96 594.05ZM1262.26 587.15C1268.26 585.15 1274.06 581.05 1279.66 574.85C1281.76 572.15 1283.06 570.45 1283.56 569.75C1285.26 567.55 1287.06 564.65 1288.96 561.05C1290.96 557.45 1292.06 554.6 1292.26 552.5C1283.66 558.1 1277.16 562.55 1272.76 565.85C1266.36 571.15 1261.91 575.65 1259.41 579.35C1257.11 582.15 1256.16 584.35 1256.56 585.95C1256.96 587.65 1258.86 588.05 1262.26 587.15ZM1327.76 551C1325.76 551 1323.81 550.5 1321.91 549.5C1317.11 547.9 1314.71 544.2 1314.71 538.4C1314.71 532.4 1316.61 526 1320.41 519.2C1320.41 519.1 1321.01 517.95 1322.21 515.75C1323.41 513.55 1324.36 511.85 1325.06 510.65C1329.26 503.55 1332.51 499.9 1334.81 499.7C1335.91 499.6 1337.21 500.15 1338.71 501.35C1340.31 502.45 1341.46 503.55 1342.16 504.65C1342.76 505.95 1343.06 506.9 1343.06 507.5V507.8C1343.06 508.2 1343.66 508.9 1344.86 509.9C1345.46 510.4 1347.76 512.1 1351.76 515C1353.86 516.5 1354.91 518.75 1354.91 521.75C1354.91 522.85 1354.86 523.55 1354.76 523.85C1354.56 526.55 1353.36 529.4 1351.16 532.4C1350.36 533.4 1349.81 534.1 1349.51 534.5L1345.46 539.15C1338.46 547.05 1332.56 551 1327.76 551ZM1325.21 542.3C1327.31 542.3 1331.26 539.15 1337.06 532.85C1342.96 526.45 1345.91 522.1 1345.91 519.8C1345.91 519.1 1345.61 518.45 1345.01 517.85L1343.21 517.4C1339.81 516.5 1337.41 516.45 1336.01 517.25C1332.51 519.25 1329.11 524.75 1325.81 533.75C1324.61 536.85 1324.01 539.1 1324.01 540.5C1324.01 541.7 1324.41 542.3 1325.21 542.3ZM1361.5 546.8C1359.5 543.4 1358.8 538.85 1359.4 533.15C1360 527.35 1361.35 521.6 1363.45 515.9C1366.05 508.7 1369.1 501.1 1372.6 493.1C1384.6 465.6 1395.5 451.85 1405.3 451.85C1410.1 451.85 1413.45 453.95 1415.35 458.15C1416.65 460.85 1415.8 466.05 1412.8 473.75C1409.7 481.55 1404.75 489.25 1397.95 496.85C1396.45 498.55 1394.65 500.4 1392.55 502.4C1391.25 503.7 1389.1 505.7 1386.1 508.4C1383.2 511 1381.4 512.65 1380.7 513.35C1379.9 514.15 1377.2 516.3 1372.6 519.8C1371.3 522.5 1369.8 527.05 1368.1 533.45C1374.2 524.35 1380.15 518.35 1385.95 515.45C1388.45 514.15 1390.95 514.05 1393.45 515.15C1396.05 516.25 1397.9 518.3 1399 521.3C1400 524 1399.25 527.8 1396.75 532.7C1395.65 534.8 1393.75 537.25 1391.05 540.05C1388.35 542.75 1385.2 545.35 1381.6 547.85C1378 550.25 1374.4 551.5 1370.8 551.6C1367.3 551.7 1364.2 550.1 1361.5 546.8ZM1374.4 510.05L1378.9 505.7C1381.6 503 1383.1 501.45 1383.4 501.05L1387 497.3C1389.2 495.1 1390.55 493.65 1391.05 492.95L1398.1 483.95C1403.5 476.45 1406.7 470.05 1407.7 464.75C1408.3 462.25 1408.25 460.5 1407.55 459.5C1406.95 458.5 1405.95 458.3 1404.55 458.9C1403.25 459.5 1402 460.6 1400.8 462.2C1398.3 465.7 1394.35 472.2 1388.95 481.7C1383.35 491.5 1378.5 500.95 1374.4 510.05ZM1380.85 538.25C1381.55 537.65 1382.7 536.55 1384.3 534.95C1385.4 533.85 1386.8 532.2 1388.5 530C1390.1 528 1390.65 526.6 1390.15 525.8C1389.25 524.1 1386.75 525.15 1382.65 528.95C1380.55 530.85 1378.5 533.3 1376.5 536.3C1374.6 539.9 1374.35 541.75 1375.75 541.85C1377.05 541.95 1378.75 540.75 1380.85 538.25ZM1447.54 554.15C1443.14 554.65 1439.39 553.35 1436.29 550.25C1433.29 547.05 1431.59 542.65 1431.19 537.05C1422.59 546.45 1415.19 550.9 1408.99 550.4C1405.09 550 1402.49 548.5 1401.19 545.9C1399.79 543.2 1399.59 540.05 1400.59 536.45C1401.59 532.75 1403.19 528.9 1405.39 524.9C1407.69 520.9 1410.39 517.2 1413.49 513.8C1415.89 511.1 1418.54 508.85 1421.44 507.05C1424.34 505.25 1427.39 504.15 1430.59 503.75C1433.79 503.25 1436.74 503.95 1439.44 505.85C1440.74 503.95 1443.09 503.95 1446.49 505.85C1449.69 507.45 1450.79 509.3 1449.79 511.4C1447.19 516.1 1444.99 521.15 1443.19 526.55C1441.19 532.35 1440.19 537.15 1440.19 540.95C1440.19 542.85 1440.59 544.3 1441.39 545.3C1442.19 546.2 1443.44 546.6 1445.14 546.5C1445.84 546.5 1446.69 546.4 1447.69 546.2C1448.69 545.9 1449.69 545.5 1450.69 545C1451.69 544.5 1452.74 543.95 1453.84 543.35C1454.94 542.75 1455.94 542.15 1456.84 541.55C1457.84 540.85 1458.79 540.2 1459.69 539.6C1460.69 539 1461.49 538.45 1462.09 537.95C1462.79 537.45 1463.34 537 1463.74 536.6L1464.49 536.15C1465.19 535.55 1465.54 535.55 1465.54 536.15C1465.44 537.85 1463.59 540.95 1459.99 545.45C1455.59 550.85 1451.44 553.75 1447.54 554.15ZM1409.59 540.35C1409.39 541.15 1409.34 541.75 1409.44 542.15C1409.64 542.45 1410.04 542.5 1410.64 542.3C1413.54 541.4 1418.14 537.5 1424.44 530.6C1431.34 522.9 1434.79 517.4 1434.79 514.1C1433.59 512.6 1431.34 513.05 1428.04 515.45C1424.74 517.75 1421.29 521.3 1417.69 526.1C1414.09 530.8 1411.39 535.55 1409.59 540.35ZM1495.84 502.7C1494.24 502.7 1493.24 502.5 1492.84 502.1C1491.44 501.3 1490.74 499.55 1490.74 496.85C1490.74 493.85 1491.24 492.05 1492.24 491.45C1492.54 491.15 1493.39 490.9 1494.79 490.7C1496.29 490.4 1497.74 490.2 1499.14 490.1C1500.54 490 1502.04 489.95 1503.64 489.95C1505.24 489.85 1506.14 489.8 1506.34 489.8C1515.04 488.4 1520.39 487.7 1522.39 487.7C1527.59 487.7 1530.19 489 1530.19 491.6C1530.19 492.6 1529.99 493.5 1529.59 494.3C1529.59 495.3 1526.49 496.55 1520.29 498.05C1514.29 499.55 1509.39 500.6 1505.59 501.2L1503.79 501.5C1502.49 501.8 1501.04 502.1 1499.44 502.4C1497.84 502.6 1496.64 502.7 1495.84 502.7ZM1464.64 557C1463.44 557 1462.24 556.35 1461.04 555.05C1459.44 553.55 1458.64 551.2 1458.64 548C1458.74 546.2 1459.84 541.85 1461.94 534.95C1464.74 526.75 1467.54 518.85 1470.34 511.25C1470.44 511.05 1470.59 510.45 1470.79 509.45C1471.09 508.45 1471.34 507.5 1471.54 506.6C1471.84 505.6 1472.14 504.6 1472.44 503.6C1472.84 502.6 1473.24 501.8 1473.64 501.2C1474.04 500.5 1474.49 500.15 1474.99 500.15C1476.29 499.55 1477.99 500.1 1480.09 501.8C1482.19 503.5 1483.19 504.85 1483.09 505.85C1483.09 506.85 1482.39 509.05 1480.99 512.45C1479.69 515.85 1478.99 517.7 1478.89 518C1476.99 522.9 1475.54 527.1 1474.54 530.6L1485.04 517.85C1490.34 511.35 1494.19 508.55 1496.59 509.45C1500.89 511.05 1502.99 514.55 1502.89 519.95C1502.89 520.35 1502.79 521.15 1502.59 522.35C1502.49 523.45 1502.44 524.1 1502.44 524.3C1502.24 525.9 1501.64 529.45 1500.64 534.95C1502.64 532.95 1504.34 531 1505.74 529.1L1508.59 525.5L1510.99 522.35L1514.29 518.45C1516.89 515.65 1519.14 514.25 1521.04 514.25C1522.04 514.25 1522.94 514.5 1523.74 515C1526.74 517 1528.24 519.25 1528.24 521.75C1528.24 522.25 1527.34 525.95 1525.54 532.85C1525.14 534.45 1524.94 535.55 1524.94 536.15C1524.94 537.45 1525.39 538.1 1526.29 538.1C1526.99 538.1 1529.74 536.95 1534.54 534.65C1539.74 531.95 1544.39 529.35 1548.49 526.85C1549.29 526.35 1549.94 526.1 1550.44 526.1C1550.84 526.1 1551.04 526.4 1551.04 527C1551.04 528.3 1549.84 530.3 1547.44 533C1545.04 535.7 1541.94 538.35 1538.14 540.95C1531.04 545.95 1526.19 548.45 1523.59 548.45C1518.19 548.45 1515.74 543.85 1516.24 534.65C1516.24 534.15 1516.29 533.15 1516.39 531.65C1516.59 530.05 1516.69 528.95 1516.69 528.35L1506.19 539.6C1505.59 540.2 1504.74 541.3 1503.64 542.9C1502.54 544.4 1501.54 545.7 1500.64 546.8C1499.74 547.8 1498.94 548.35 1498.24 548.45C1497.04 548.65 1495.94 548.75 1494.94 548.75C1491.84 548.75 1490.24 547.85 1490.14 546.05C1490.04 545.35 1490.04 544.3 1490.14 542.9C1490.24 537.8 1491.04 531.1 1492.54 522.8C1489.34 526.5 1485.94 530.8 1482.34 535.7C1474.74 546.2 1470.64 552.35 1470.04 554.15C1468.04 556.05 1466.24 557 1464.64 557ZM1562.66 553.25C1557.76 553.25 1553.31 551.6 1549.31 548.3C1547.11 546.5 1545.66 544.65 1544.96 542.75C1544.26 540.85 1543.91 538.4 1543.91 535.4C1543.91 527.7 1547.16 520.45 1553.66 513.65C1560.26 506.85 1566.46 503.45 1572.26 503.45C1573.96 503.45 1575.56 503.9 1577.06 504.8C1579.16 506 1580.41 507.85 1580.81 510.35C1580.91 510.75 1580.96 511.6 1580.96 512.9C1580.96 515.2 1580.56 517.55 1579.76 519.95C1578.56 523.55 1576.61 526.7 1573.91 529.4C1571.31 532.1 1568.26 533.85 1564.76 534.65C1564.46 534.75 1563.81 534.8 1562.81 534.8C1559.51 534.8 1556.56 533.95 1553.96 532.25C1552.26 537.55 1552.56 541.4 1554.86 543.8C1556.06 545.1 1558.16 545.75 1561.16 545.75C1570.96 545.75 1580.26 541.35 1589.06 532.55C1589.16 532.45 1589.31 532.6 1589.51 533C1589.81 535.4 1588.71 538.15 1586.21 541.25L1585.61 542C1582.91 545.1 1579.36 547.75 1574.96 549.95C1570.56 552.15 1566.46 553.25 1562.66 553.25ZM1557.41 525.95C1559.41 527.05 1561.86 526.2 1564.76 523.4C1566.16 522.4 1568.11 520.4 1570.61 517.4C1573.31 514.3 1574.41 512.3 1573.91 511.4C1573.81 510.6 1572.61 510.95 1570.31 512.45C1568.11 513.85 1565.66 515.9 1562.96 518.6C1560.36 521.3 1558.51 523.75 1557.41 525.95ZM1622.59 554.3C1621.59 554.3 1620.44 554.05 1619.14 553.55C1615.54 551.75 1613.14 548.4 1611.94 543.5C1611.44 541 1611.19 538.7 1611.19 536.6C1611.19 534.6 1611.34 532.5 1611.64 530.3C1604.44 543 1597.74 549.35 1591.54 549.35C1588.84 549.35 1586.44 548.35 1584.34 546.35C1582.24 544.35 1581.19 542 1581.19 539.3C1580.99 537.3 1581.59 535.4 1582.99 533.6C1584.39 531.8 1586.09 531 1588.09 531.2C1590.19 531.4 1591.84 532.95 1593.04 535.85C1593.54 536.95 1594.14 537.5 1594.84 537.5C1595.04 537.7 1595.39 537.6 1595.89 537.2C1596.39 536.7 1596.99 536.05 1597.69 535.25C1598.39 534.35 1598.84 533.8 1599.04 533.6C1603.84 527.9 1607.94 521.1 1611.34 513.2C1612.44 510.5 1614.49 506.95 1617.49 502.55C1617.79 502.15 1618.19 501.95 1618.69 501.95C1619.99 501.95 1621.44 502.75 1623.04 504.35C1624.84 506.05 1625.74 507.45 1625.74 508.55C1625.94 510.45 1624.79 514.35 1622.29 520.25C1620.79 524.75 1620.04 528.85 1620.04 532.55C1620.04 535.45 1620.49 538.4 1621.39 541.4C1622.39 544.8 1624.09 546.5 1626.49 546.5C1629.49 546.5 1634.49 543.2 1641.49 536.6C1642.89 535.6 1643.59 535.5 1643.59 536.3C1643.59 537.6 1642.39 539.9 1639.99 543.2C1637.59 546.5 1634.89 549.1 1631.89 551C1628.49 553.2 1625.39 554.3 1622.59 554.3ZM1655.46 552.95C1654.06 552.95 1652.61 552.65 1651.11 552.05C1645.61 549.55 1642.86 544.6 1642.86 537.2C1642.86 529.8 1645.11 521.45 1649.61 512.15C1653.11 504.15 1655.66 500.3 1657.26 500.6C1658.96 500.9 1660.41 501.85 1661.61 503.45C1662.91 504.95 1663.41 506.7 1663.11 508.7C1662.91 509.9 1662.06 511.75 1660.56 514.25C1659.56 515.95 1658.41 518.25 1657.11 521.15C1658.51 521.25 1660.91 521.3 1664.31 521.3C1668.11 521.6 1671.06 523.15 1673.16 525.95C1675.06 528.15 1676.01 530.65 1676.01 533.45C1676.01 537.05 1674.06 540.8 1670.16 544.7C1664.96 550.2 1660.06 552.95 1655.46 552.95ZM1651.71 539.3C1651.71 542.2 1652.56 543.65 1654.26 543.65C1655.96 543.65 1658.56 542.05 1662.06 538.85C1665.56 535.65 1667.31 533.3 1667.31 531.8C1667.31 530.6 1666.21 530 1664.01 530C1660.61 530 1656.96 530.6 1653.06 531.8C1652.16 533.2 1651.71 535.7 1651.71 539.3ZM1689.05 552.2C1685.75 550 1683.85 547.7 1683.35 545.3C1683.15 543.7 1683.05 542.6 1683.05 542C1683.05 540.1 1683.25 538.15 1683.65 536.15C1682.15 534.85 1681.4 533.15 1681.4 531.05C1681.4 529.65 1681.6 528.55 1682 527.75C1682.1 527.15 1683.25 527.25 1685.45 528.05C1686.25 526.35 1687.45 523.45 1689.05 519.35L1691.3 513.5C1691.6 512.8 1691.9 511.9 1692.2 510.8C1692.6 509.6 1692.9 508.5 1693.1 507.5C1693.4 506.5 1693.7 505.55 1694 504.65C1694.3 503.65 1694.55 502.95 1694.75 502.55C1695.05 502.05 1695.3 501.85 1695.5 501.95C1698.2 501.95 1700.45 502.35 1702.25 503.15C1704.05 503.95 1704.95 504.9 1704.95 506C1704.95 506.5 1704.4 508.15 1703.3 510.95C1703 511.55 1702.45 512.85 1701.65 514.85C1700.95 516.85 1700.35 518.45 1699.85 519.65C1699.45 520.55 1698.6 522.75 1697.3 526.25C1699 526.25 1701.85 525.4 1705.85 523.7C1710.15 521.8 1713.15 520.25 1714.85 519.05C1715.35 518.55 1716.4 516.6 1718 513.2C1722.2 504.9 1726 500.75 1729.4 500.75C1730.6 500.75 1731.85 501.35 1733.15 502.55C1734.45 503.85 1735.1 505.35 1735.1 507.05C1735.1 511.05 1731 516.95 1722.8 524.75L1720.25 531.05C1719.15 533.65 1718.6 536.05 1718.6 538.25C1718.6 541.45 1720.15 543.05 1723.25 543.05C1724.35 543.05 1725.05 543 1725.35 542.9C1727.95 542.5 1732.25 540.3 1738.25 536.3C1740.85 534.5 1744 531.6 1747.7 527.6C1747.9 527.4 1748.1 527.3 1748.3 527.3C1748.5 527.3 1748.65 527.45 1748.75 527.75C1748.95 527.95 1749.05 528.25 1749.05 528.65C1749.05 531.55 1745.7 536.5 1739 543.5C1737.4 545.2 1735.6 546.65 1733.6 547.85C1730.5 549.75 1727.25 550.7 1723.85 550.7C1722.65 550.7 1721.05 550.45 1719.05 549.95C1713.85 548.35 1711.25 544.4 1711.25 538.1C1711.25 537.9 1711.35 535.9 1711.55 532.1L1705.85 535.55C1702.55 537.25 1698.3 538.05 1693.1 537.95C1692.2 540.25 1692 544.05 1692.5 549.35C1692.6 551.05 1692.25 552.15 1691.45 552.65C1690.65 553.25 1689.85 553.1 1689.05 552.2ZM1791.89 552.5C1786.39 552.5 1782.64 550.9 1780.64 547.7C1779.04 544.6 1778.24 541.35 1778.24 537.95C1778.24 535.05 1778.74 531.25 1779.74 526.55C1778.34 527.05 1775.84 528.3 1772.24 530.3C1770.74 536.6 1769.04 541.55 1767.14 545.15C1764.24 549.35 1760.79 551.45 1756.79 551.45L1752.89 550.7C1749.89 549.6 1747.49 547.6 1745.69 544.7C1743.99 541.7 1743.14 538.4 1743.14 534.8C1743.14 531.7 1743.79 527.85 1745.09 523.25C1746.39 518.55 1747.74 514.75 1749.14 511.85C1749.24 511.55 1749.54 510.8 1750.04 509.6C1750.64 508.3 1751.14 507.3 1751.54 506.6C1751.94 505.8 1752.44 504.9 1753.04 503.9C1753.64 502.8 1754.24 502 1754.84 501.5C1755.44 501 1755.99 500.75 1756.49 500.75C1757.59 500.75 1758.94 501.55 1760.54 503.15C1762.24 504.65 1763.24 506.15 1763.54 507.65C1763.64 507.95 1763.44 508.8 1762.94 510.2C1762.54 511.3 1761.69 513.05 1760.39 515.45L1758.14 520.1C1760.84 520.3 1763.69 520.75 1766.69 521.45C1767.89 520.75 1771.04 519 1776.14 516.2C1779.24 514.6 1781.94 513.05 1784.24 511.55C1786.24 508.65 1787.94 505.95 1789.34 503.45C1791.74 500.15 1793.64 498.5 1795.04 498.5C1796.34 498.5 1797.79 499.25 1799.39 500.75C1800.99 502.15 1801.79 503.6 1801.79 505.1C1801.79 505.8 1800.39 508.6 1797.59 513.5C1797.09 514.4 1796.59 515.3 1796.09 516.2C1795.59 517.1 1795.19 517.85 1794.89 518.45C1794.59 518.95 1794.29 519.45 1793.99 519.95C1793.79 520.35 1793.59 520.7 1793.39 521C1793.29 521.2 1793.24 521.35 1793.24 521.45C1790.24 528.35 1788.74 533.95 1788.74 538.25C1788.74 540.95 1789.44 542.7 1790.84 543.5C1791.24 543.9 1791.94 544.1 1792.94 544.1C1794.84 544.1 1797.24 543.15 1800.14 541.25C1802.64 539.75 1804.99 538.1 1807.19 536.3C1807.79 535.9 1808.09 536.2 1808.09 537.2C1808.09 539.2 1807.29 541.3 1805.69 543.5C1804.09 545.8 1801.94 547.9 1799.24 549.8C1796.64 551.6 1794.19 552.5 1791.89 552.5ZM1754.84 541.55C1755.64 541.65 1757.04 540.35 1759.04 537.65C1761.04 534.95 1762.09 532.5 1762.19 530.3C1762.19 529.1 1760.39 528.2 1756.79 527.6C1755.89 527.8 1755.04 529 1754.24 531.2C1753.54 533.4 1753.19 535.55 1753.19 537.65C1753.19 540.05 1753.74 541.35 1754.84 541.55ZM1847.12 490.7C1843.42 490.7 1840.12 489.6 1837.22 487.4C1834.22 485.2 1832.72 482.95 1832.72 480.65C1832.72 479.05 1833.87 478.25 1836.17 478.25C1836.97 478.25 1838.42 478.75 1840.52 479.75C1842.72 480.65 1844.67 481.1 1846.37 481.1C1847.97 481.1 1849.87 480.2 1852.07 478.4L1855.22 475.55L1863.92 467.3C1864.72 466.6 1865.67 466.65 1866.77 467.45C1867.97 468.15 1868.87 469.25 1869.47 470.75C1870.17 472.25 1870.27 473.6 1869.77 474.8C1868.67 476.6 1867.17 478.6 1865.27 480.8C1863.67 482.9 1861.07 485.1 1857.47 487.4C1854.07 489.6 1850.62 490.7 1847.12 490.7ZM1812.47 555.5C1803.77 554 1801.62 545.2 1806.02 529.1C1807.82 522.6 1809.72 516.55 1811.72 510.95C1814.32 503.85 1816.32 500 1817.72 499.4C1819.22 498.9 1821.07 499.6 1823.27 501.5C1825.67 503.5 1826.87 505.55 1826.87 507.65C1826.87 508.65 1826.52 509.8 1825.82 511.1C1822.22 517.8 1818.97 524.7 1816.07 531.8C1813.47 540 1812.62 544.3 1813.52 544.7H1814.12C1814.22 544.7 1815.12 543.8 1816.82 542C1820.02 538.1 1824.72 532.8 1830.92 526.1L1834.52 521.45C1836.22 519.25 1837.92 517.2 1839.62 515.3C1839.82 515.1 1840.52 514.1 1841.72 512.3C1842.92 510.4 1844.12 508.8 1845.32 507.5C1846.52 506.1 1847.42 505.45 1848.02 505.55C1849.12 505.45 1850.32 505.85 1851.62 506.75C1853.02 507.65 1854.02 508.65 1854.62 509.75C1855.12 510.55 1855.42 511.25 1855.52 511.85C1855.62 512.35 1855.62 512.8 1855.52 513.2C1855.42 513.5 1855.22 514.05 1854.92 514.85C1854.72 515.65 1854.52 516.4 1854.32 517.1C1852.12 523.2 1850.47 528.85 1849.37 534.05C1847.97 541.15 1848.67 544.7 1851.47 544.7C1855.27 544.7 1860.82 542.6 1868.12 538.4L1872.47 536C1873.17 535.7 1873.52 535.75 1873.52 536.15C1873.42 537.75 1871.37 540.6 1867.37 544.7C1862.57 549.7 1858.22 552.4 1854.32 552.8C1849.52 553.2 1845.67 551.35 1842.77 547.25C1839.87 543.15 1839.27 536.95 1840.97 528.65C1838.87 531.05 1835.77 534.65 1831.67 539.45C1822.37 550.55 1815.97 555.9 1812.47 555.5ZM1935.85 584C1932.55 584 1929.85 583.05 1927.75 581.15C1925.75 579.35 1924.75 576.75 1924.75 573.35C1924.75 568.95 1925.9 564.9 1928.2 561.2C1930.5 557.6 1934 553.8 1938.7 549.8C1936.1 548.8 1934.2 547.75 1933 546.65C1931.8 545.45 1931.2 543.85 1931.2 541.85L1925.05 548C1922.45 550.6 1919.3 551.9 1915.6 551.9C1913.9 551.9 1912.6 551.7 1911.7 551.3C1908.6 550.4 1906.1 548.9 1904.2 546.8C1902.4 544.7 1901.6 542.3 1901.8 539.6C1902.3 535.1 1905.7 525.3 1912 510.2C1913.4 506.7 1914.8 504.55 1916.2 503.75C1916.7 503.25 1918.2 503.2 1920.7 503.6C1923.3 503.9 1924.6 504.75 1924.6 506.15C1924.6 509.45 1923.35 513.55 1920.85 518.45C1919.55 520.75 1917.55 526.05 1914.85 534.35C1913.85 536.95 1913.35 539.05 1913.35 540.65C1913.35 542.05 1913.85 542.75 1914.85 542.75C1915.65 542.75 1918.6 540.2 1923.7 535.1C1926.2 532.6 1929.9 527.4 1934.8 519.5C1936.3 513.3 1938.55 509.05 1941.55 506.75C1942.25 506.05 1943.5 505.7 1945.3 505.7C1948.4 505.7 1950.55 506.7 1951.75 508.7C1952.05 509.3 1952.2 510 1952.2 510.8C1952.2 512.6 1951.1 515.2 1948.9 518.6C1946.7 521.9 1945.5 523.8 1945.3 524.3L1943.8 527.9C1941.4 533.2 1940.1 537.25 1939.9 540.05C1939.9 540.95 1939.95 541.5 1940.05 541.7C1940.35 542.7 1942.25 543.35 1945.75 543.65L1954.9 538.1C1960.2 534.9 1963.8 532.85 1965.7 531.95C1966.7 531.55 1967.2 531.65 1967.2 532.25C1967.2 533.55 1965.8 536 1963 539.6C1960.3 543.2 1957.1 546.6 1953.4 549.8C1955 552.3 1955.8 555.75 1955.8 560.15C1955.8 565.55 1953.75 570.9 1949.65 576.2C1945.65 581.4 1941.05 584 1935.85 584ZM1934.65 576.65C1935.75 576.65 1937.25 575.25 1939.15 572.45C1943.65 566.15 1945.9 561.55 1945.9 558.65C1945.9 558.15 1945.75 557.75 1945.45 557.45C1943.75 559.05 1941.3 562.15 1938.1 566.75C1935.1 571.25 1933.6 574.1 1933.6 575.3C1933.6 576.2 1933.95 576.65 1934.65 576.65ZM1982.19 553.25C1977.29 553.25 1972.84 551.6 1968.84 548.3C1966.64 546.5 1965.19 544.65 1964.49 542.75C1963.79 540.85 1963.44 538.4 1963.44 535.4C1963.44 527.7 1966.69 520.45 1973.19 513.65C1979.79 506.85 1985.99 503.45 1991.79 503.45C1993.49 503.45 1995.09 503.9 1996.59 504.8C1998.69 506 1999.94 507.85 2000.34 510.35C2000.44 510.75 2000.49 511.6 2000.49 512.9C2000.49 515.2 2000.09 517.55 1999.29 519.95C1998.09 523.55 1996.14 526.7 1993.44 529.4C1990.84 532.1 1987.79 533.85 1984.29 534.65C1983.99 534.75 1983.34 534.8 1982.34 534.8C1979.04 534.8 1976.09 533.95 1973.49 532.25C1971.79 537.55 1972.09 541.4 1974.39 543.8C1975.59 545.1 1977.69 545.75 1980.69 545.75C1990.49 545.75 1999.79 541.35 2008.59 532.55C2008.69 532.45 2008.84 532.6 2009.04 533C2009.34 535.4 2008.24 538.15 2005.74 541.25L2005.14 542C2002.44 545.1 1998.89 547.75 1994.49 549.95C1990.09 552.15 1985.99 553.25 1982.19 553.25ZM1976.94 525.95C1978.94 527.05 1981.39 526.2 1984.29 523.4C1985.69 522.4 1987.64 520.4 1990.14 517.4C1992.84 514.3 1993.94 512.3 1993.44 511.4C1993.34 510.6 1992.14 510.95 1989.84 512.45C1987.64 513.85 1985.19 515.9 1982.49 518.6C1979.89 521.3 1978.04 523.75 1976.94 525.95ZM2008.97 552.2C2005.67 550 2003.77 547.7 2003.27 545.3C2003.07 543.7 2002.97 542.6 2002.97 542C2002.97 540.1 2003.17 538.15 2003.57 536.15C2002.07 534.85 2001.32 533.15 2001.32 531.05C2001.32 529.65 2001.52 528.55 2001.92 527.75C2002.02 527.15 2003.17 527.25 2005.37 528.05C2006.17 526.35 2007.37 523.45 2008.97 519.35L2011.22 513.5C2011.52 512.8 2011.82 511.9 2012.12 510.8C2012.52 509.6 2012.82 508.5 2013.02 507.5C2013.32 506.5 2013.62 505.55 2013.92 504.65C2014.22 503.65 2014.47 502.95 2014.67 502.55C2014.97 502.05 2015.22 501.85 2015.42 501.95C2018.12 501.95 2020.37 502.35 2022.17 503.15C2023.97 503.95 2024.87 504.9 2024.87 506C2024.87 506.5 2024.32 508.15 2023.22 510.95C2022.92 511.55 2022.37 512.85 2021.57 514.85C2020.87 516.85 2020.27 518.45 2019.77 519.65C2019.37 520.55 2018.52 522.75 2017.22 526.25C2018.92 526.25 2021.77 525.4 2025.77 523.7C2030.07 521.8 2033.07 520.25 2034.77 519.05C2035.27 518.55 2036.32 516.6 2037.92 513.2C2042.12 504.9 2045.92 500.75 2049.32 500.75C2050.52 500.75 2051.77 501.35 2053.07 502.55C2054.37 503.85 2055.02 505.35 2055.02 507.05C2055.02 511.05 2050.92 516.95 2042.72 524.75L2040.17 531.05C2039.07 533.65 2038.52 536.05 2038.52 538.25C2038.52 541.45 2040.07 543.05 2043.17 543.05C2044.27 543.05 2044.97 543 2045.27 542.9C2047.87 542.5 2052.17 540.3 2058.17 536.3C2060.77 534.5 2063.92 531.6 2067.62 527.6C2067.82 527.4 2068.02 527.3 2068.22 527.3C2068.42 527.3 2068.57 527.45 2068.67 527.75C2068.87 527.95 2068.97 528.25 2068.97 528.65C2068.97 531.55 2065.62 536.5 2058.92 543.5C2057.32 545.2 2055.52 546.65 2053.52 547.85C2050.42 549.75 2047.17 550.7 2043.77 550.7C2042.57 550.7 2040.97 550.45 2038.97 549.95C2033.77 548.35 2031.17 544.4 2031.17 538.1C2031.17 537.9 2031.27 535.9 2031.47 532.1L2025.77 535.55C2022.47 537.25 2018.22 538.05 2013.02 537.95C2012.12 540.25 2011.92 544.05 2012.42 549.35C2012.52 551.05 2012.17 552.15 2011.37 552.65C2010.57 553.25 2009.77 553.1 2008.97 552.2ZM2098.77 502.7C2097.17 502.7 2096.17 502.5 2095.77 502.1C2094.37 501.3 2093.67 499.55 2093.67 496.85C2093.67 493.85 2094.17 492.05 2095.17 491.45C2095.47 491.15 2096.32 490.9 2097.72 490.7C2099.22 490.4 2100.67 490.2 2102.07 490.1C2103.47 490 2104.97 489.95 2106.57 489.95C2108.17 489.85 2109.07 489.8 2109.27 489.8C2117.97 488.4 2123.32 487.7 2125.32 487.7C2130.52 487.7 2133.12 489 2133.12 491.6C2133.12 492.6 2132.92 493.5 2132.52 494.3C2132.52 495.3 2129.42 496.55 2123.22 498.05C2117.22 499.55 2112.32 500.6 2108.52 501.2L2106.72 501.5C2105.42 501.8 2103.97 502.1 2102.37 502.4C2100.77 502.6 2099.57 502.7 2098.77 502.7ZM2067.57 557C2066.37 557 2065.17 556.35 2063.97 555.05C2062.37 553.55 2061.57 551.2 2061.57 548C2061.67 546.2 2062.77 541.85 2064.87 534.95C2067.67 526.75 2070.47 518.85 2073.27 511.25C2073.37 511.05 2073.52 510.45 2073.72 509.45C2074.02 508.45 2074.27 507.5 2074.47 506.6C2074.77 505.6 2075.07 504.6 2075.37 503.6C2075.77 502.6 2076.17 501.8 2076.57 501.2C2076.97 500.5 2077.42 500.15 2077.92 500.15C2079.22 499.55 2080.92 500.1 2083.02 501.8C2085.12 503.5 2086.12 504.85 2086.02 505.85C2086.02 506.85 2085.32 509.05 2083.92 512.45C2082.62 515.85 2081.92 517.7 2081.82 518C2079.92 522.9 2078.47 527.1 2077.47 530.6L2087.97 517.85C2093.27 511.35 2097.12 508.55 2099.52 509.45C2103.82 511.05 2105.92 514.55 2105.82 519.95C2105.82 520.35 2105.72 521.15 2105.52 522.35C2105.42 523.45 2105.37 524.1 2105.37 524.3C2105.17 525.9 2104.57 529.45 2103.57 534.95C2105.57 532.95 2107.27 531 2108.67 529.1L2111.52 525.5L2113.92 522.35L2117.22 518.45C2119.82 515.65 2122.07 514.25 2123.97 514.25C2124.97 514.25 2125.87 514.5 2126.67 515C2129.67 517 2131.17 519.25 2131.17 521.75C2131.17 522.25 2130.27 525.95 2128.47 532.85C2128.07 534.45 2127.87 535.55 2127.87 536.15C2127.87 537.45 2128.32 538.1 2129.22 538.1C2129.92 538.1 2132.67 536.95 2137.47 534.65C2142.67 531.95 2147.32 529.35 2151.42 526.85C2152.22 526.35 2152.87 526.1 2153.37 526.1C2153.77 526.1 2153.97 526.4 2153.97 527C2153.97 528.3 2152.77 530.3 2150.37 533C2147.97 535.7 2144.87 538.35 2141.07 540.95C2133.97 545.95 2129.12 548.45 2126.52 548.45C2121.12 548.45 2118.67 543.85 2119.17 534.65C2119.17 534.15 2119.22 533.15 2119.32 531.65C2119.52 530.05 2119.62 528.95 2119.62 528.35L2109.12 539.6C2108.52 540.2 2107.67 541.3 2106.57 542.9C2105.47 544.4 2104.47 545.7 2103.57 546.8C2102.67 547.8 2101.87 548.35 2101.17 548.45C2099.97 548.65 2098.87 548.75 2097.87 548.75C2094.77 548.75 2093.17 547.85 2093.07 546.05C2092.97 545.35 2092.97 544.3 2093.07 542.9C2093.17 537.8 2093.97 531.1 2095.47 522.8C2092.27 526.5 2088.87 530.8 2085.27 535.7C2077.67 546.2 2073.57 552.35 2072.97 554.15C2070.97 556.05 2069.17 557 2067.57 557ZM2144.89 609.05C2145.69 610.15 2145.19 610.8 2143.39 611C2140.39 611.4 2137.69 610.25 2135.29 607.55C2134.09 605.95 2133.29 604.35 2132.89 602.75C2131.89 599.05 2132.54 592.65 2134.84 583.55C2134.84 583.45 2134.89 583.2 2134.99 582.8C2134.99 582.5 2135.04 582.3 2135.14 582.2C2138.54 568.6 2143.69 552.6 2150.59 534.2C2153.89 525.1 2157.44 516.05 2161.24 507.05C2164.44 499.45 2166.79 495.3 2168.29 494.6C2169.39 494.2 2171.49 494.35 2174.59 495.05C2176.99 495.65 2177.34 497.75 2175.64 501.35C2173.64 505.05 2169.59 513.8 2163.49 527.6C2166.49 523.5 2169.04 520.4 2171.14 518.3C2177.24 511.6 2182.29 507.55 2186.29 506.15C2187.19 505.75 2188.39 505.55 2189.89 505.55C2193.19 505.55 2195.99 507.15 2198.29 510.35C2200.49 513.35 2201.34 516.8 2200.84 520.7C2200.74 523.2 2199.49 526.9 2197.09 531.8C2194.79 536.4 2191.64 540.75 2187.64 544.85C2183.64 548.85 2179.54 550.85 2175.34 550.85C2171.74 550.85 2169.14 549.3 2167.54 546.2C2166.54 544.3 2166.59 543.2 2167.69 542.9C2167.89 542.7 2168.14 542.7 2168.44 542.9C2171.24 543.5 2174.14 542.95 2177.14 541.25C2180.14 539.45 2182.54 537.1 2184.34 534.2C2189.34 526.1 2191.79 519.8 2191.69 515.3C2191.69 513.8 2191.34 513.05 2190.64 513.05C2188.74 513.05 2185.49 515.05 2180.89 519.05C2174.09 525.05 2167.99 532.2 2162.59 540.5C2157.29 548.8 2153.34 557.15 2150.74 565.55C2146.54 579.15 2144.09 588.25 2143.39 592.85C2142.09 599.75 2142.59 605.15 2144.89 609.05Z" fill="#394263"/>
<path d="M264.099 106.761C306.946 69.085 362.051 48.3067 419.107 48.3124C476.163 48.3181 531.263 69.1075 574.103 106.792L544.789 140.116C510.05 109.558 465.369 92.6996 419.102 92.695C372.835 92.6903 328.151 109.539 293.406 140.091L264.099 106.761Z" fill="url(#paint0_linear_330_465)"/>
<path fill-rule="evenodd" clip-rule="evenodd" d="M419.431 649.991C419.421 650.004 419.401 650.003 419.391 649.989L325.281 505.675C321.2 499.416 320.132 491.659 322.37 484.53L382.626 292.603C386.805 279.292 379.28 265.136 365.909 261.154L126.399 189.83C120.721 188.139 115.829 184.487 112.593 179.526L45.7102 76.9636C36.3483 62.6074 43.9109 43.3287 60.8405 40.6578C80.2734 37.5919 100.196 36 120.491 36C230.404 36 329.411 82.6946 398.757 157.329C409.795 169.209 429.105 169.209 440.143 157.329C509.489 82.6946 608.496 36 718.409 36C738.704 36 758.627 37.5919 778.059 40.6578C794.989 43.3286 802.552 62.6074 793.19 76.9636L726.333 179.485C723.082 184.472 718.157 188.134 712.446 189.814L470.007 261.114C456.461 265.097 448.9 279.5 453.313 292.912L516.311 484.381C518.684 491.592 517.651 499.491 513.504 505.85L419.509 649.989C419.499 650.003 419.479 650.004 419.469 649.991C419.459 649.978 419.441 649.978 419.431 649.991Z" fill="url(#paint1_linear_330_465)"/>
<path fill-rule="evenodd" clip-rule="evenodd" d="M477.669 213.779C398.329 304.554 398.329 440.008 477.669 530.784C522.127 581.651 586.392 610.833 653.949 610.833H746.133C751.656 610.833 756.133 606.356 756.133 600.833V133.729H653.949C586.392 133.729 522.127 162.912 477.669 213.779ZM529.9 282.318C486.981 334.326 486.981 409.467 529.9 461.475C553.664 490.271 589.049 506.948 626.385 506.948H678.879V236.845H626.385C589.049 236.845 553.664 253.522 529.9 282.318Z" fill="#394263"/>
<path fill-rule="evenodd" clip-rule="evenodd" d="M361.498 530.886C440.958 440.078 440.958 304.485 361.498 213.677C317.041 162.871 252.818 133.729 185.308 133.729H82.8007L82.8007 600.833C82.8007 606.356 87.2778 610.833 92.8007 610.833H185.308C252.818 610.833 317.041 581.691 361.498 530.886ZM309.248 462.301C352.233 410.274 352.233 335.057 309.248 283.031C285.484 254.268 250.122 237.615 212.813 237.615L160.144 237.615L160.144 507.717H212.813C250.122 507.717 285.484 491.063 309.248 462.301Z" fill="#394263"/>
<rect x="681" y="507" width="107" height="104" rx="10" fill="#394263"/>
<defs>
<linearGradient id="paint0_linear_330_465" x1="419.083" y1="29.0743" x2="419.083" y2="128.727" gradientUnits="userSpaceOnUse">
<stop stop-color="#875D74"/>
<stop offset="1" stop-color="#916271"/>
</linearGradient>
<linearGradient id="paint1_linear_330_465" x1="419.45" y1="36" x2="419.45" y2="650" gradientUnits="userSpaceOnUse">
<stop stop-color="#845B74"/>
<stop offset="1" stop-color="#F49658"/>
</linearGradient>
</defs>
</svg>
